<svg width="120" height="64" viewBox="0 0 120 64" fill="none" xmlns="http://www.w3.org/2000/svg"><g clip-path="url(#clip0_282_10494)"><path d="M119.163-.5H18.635L9.314 9 0 18.508v26.875l9.314 9.507 9.32 9.5h100.529V-.5z" fill="#fff"/><path fill-rule="evenodd" clip-rule="evenodd" d="M119.216-.5H18.635L9.314 9 0 18.508V45.39l9.314 9.5 9.32 9.508h100.582V-.5zm-.584 64.371H18.844L9.68 54.524.51 45.169V18.722l9.164-9.348 9.17-9.347h99.796" fill="#1A171B"/><path fill-rule="evenodd" clip-rule="evenodd" d="M1.675 30.808v-11.59l8.828-9.005L19.33 1.21l-.217-.526-8.977 9.157-8.977 9.156v12.331l.516-.519z" fill="#1A171B"/><path fill-rule="evenodd" clip-rule="evenodd" d="M10.503 53.676l-8.828-9.004V30.487l-.516.389v14.017l8.977 9.157 8.977 9.157.217-.527-8.827-9.004z" fill="#1A171B"/><path fill-rule="evenodd" clip-rule="evenodd" d="M1.157 18.995l8.977-9.157L19.11.681l-.27-.656-9.164 9.348-9.17 9.347.65.275z" fill="url(#paint0_linear_282_10494)"/><path fill-rule="evenodd" clip-rule="evenodd" d="M19.11 63.205l-8.976-9.157-8.977-9.156-.651.274 9.171 9.348 9.165 9.347.269-.656z" fill="url(#paint1_linear_282_10494)"/><path fill-rule="evenodd" clip-rule="evenodd" d="M118.657 63.862V.025l-.651.656v62.525l.651.656z" fill="url(#paint2_linear_282_10494)"/><path fill-rule="evenodd" clip-rule="evenodd" d="M1.157 31.327V18.996l-.651-.275V45.17l.65-.275V31.326z" fill="url(#paint3_linear_282_10494)"/><path fill-rule="evenodd" clip-rule="evenodd" d="M19.113.681h98.898l.651-.656H18.844l.27.656z" fill="url(#paint4_linear_282_10494)"/><path fill-rule="evenodd" clip-rule="evenodd" d="M18.845 63.864h99.817l-.65-.657H18.777l.068.657z" fill="url(#paint5_linear_282_10494)"/><path d="M71.502 34.769a3.218 3.218 0 01-.15-.39 2.73 2.73 0 01-.105-.427 3.159 3.159 0 01-.037-.465c0-.275.037-.542.12-.809.075-.267.194-.534.344-.801h.172c-.06.13-.112.252-.15.35-.037.1-.075.192-.097.26a2.573 2.573 0 00-.06.23 8.47 8.47 0 00-.045.25c-.015.085-.022.176-.03.26-.007.084-.007.176-.007.26 0 .267.03.534.097.801s.165.534.292.801h-.172a3.3 3.3 0 01-.165-.32h-.007zm.626-2.855h.255v2.167h.942v.29h-1.197v-2.457zm1.382 1.566c0-.153.014-.282.044-.397a.698.698 0 01.142-.29.512.512 0 01.21-.175.57.57 0 01.508 0c.075.038.15.099.21.175a.83.83 0 01.142.282c.03.115.045.245.045.39 0 .16-.015.297-.045.42a.9.9 0 01-.135.297.578.578 0 01-.21.175.597.597 0 01-.26.054.544.544 0 01-.465-.23.945.945 0 01-.142-.29 1.621 1.621 0 01-.045-.404v-.007zm.239 0c0 .114.007.221.03.305.022.084.052.16.09.214.037.06.082.099.134.13.052.03.105.038.165.038a.265.265 0 00.15-.046.53.53 0 00.134-.13.79.79 0 00.09-.213 1.2 1.2 0 00.03-.298 1.17 1.17 0 00-.03-.298.791.791 0 00-.09-.213.365.365 0 00-.135-.13.309.309 0 00-.164-.038.342.342 0 00-.157.038.347.347 0 00-.128.13.791.791 0 00-.09.213 1.17 1.17 0 00-.03.298zm1.163-.893h.247l.224 1.022.075.382.075-.367.217-1.045h.247l.202 1.03.067.336.082-.344.24-1.03h.232l-.434 1.778h-.247l-.224-1.06-.053-.306-.277 1.366h-.246l-.427-1.778v.016zm2.868-.673h.719a.72.72 0 01.194.023c.053.015.105.03.15.053a.5.5 0 01.21.221c.03.054.052.108.06.161a.665.665 0 01.022.176c0 .06 0 .114-.015.16a.65.65 0 01-.135.267.48.48 0 01-.112.1.48.48 0 01.262.213c.03.053.06.107.075.168.015.06.022.13.022.206 0 .076 0 .145-.022.206a.662.662 0 01-.068.183.512.512 0 01-.104.145.527.527 0 01-.128.099.51.51 0 01-.172.053 1.959 1.959 0 01-.224.016h-.733v-2.45zm.667 1.03h.134a.275.275 0 00.09-.015.497.497 0 00.09-.046l.067-.068a.386.386 0 00.037-.1.602.602 0 00.016-.122c0-.045 0-.084-.016-.122-.014-.038-.022-.068-.037-.099a.298.298 0 00-.06-.076.154.154 0 00-.075-.046c-.03-.008-.06-.023-.112-.023-.052 0-.105-.008-.18-.008h-.38v.74h.41l.016-.015zm.06 1.137h.134c.037 0 .067-.015.097-.023a.4.4 0 00.098-.053.238.238 0 00.067-.084.408.408 0 00.037-.114.855.855 0 00.015-.138c0-.045 0-.091-.015-.13-.015-.038-.022-.076-.037-.106a.339.339 0 00-.06-.084.192.192 0 00-.082-.054.37.37 0 00-.12-.038c-.052 0-.105-.007-.172-.007h-.441v.839h.478v-.008zm1.025-2.167h.232v2.45h-.232v-2.45zm1.511 2.191c-.03.053-.06.099-.09.137a.397.397 0 01-.105.092.67.67 0 01-.112.053c-.037.015-.082.015-.134.015-.053 0-.105 0-.15-.023a.414.414 0 01-.224-.175.409.409 0 01-.06-.13.954.954 0 01-.03-.168c0-.068-.008-.137-.008-.22v-1.107h.232v1.213a.32.32 0 00.023.137c.007.03.022.061.037.084a.49.49 0 00.06.069c.022.015.052.03.075.046.03.007.052.015.09.015.06 0 .104-.015.157-.038a.288.288 0 00.12-.115.423.423 0 00.067-.175c.015-.076.022-.168.022-.282v-.954h.232v1.778h-.21v-.26l.008.008zm1.525-.305l.24.039a.985.985 0 01-.083.251.82.82 0 01-.134.183.539.539 0 01-.397.138.63.63 0 01-.27-.054.512.512 0 01-.209-.175.795.795 0 01-.135-.29 1.543 1.543 0 01-.044-.39c0-.152.015-.29.044-.404a.9.9 0 01.135-.297.674.674 0 01.21-.183.539.539 0 01.703.183c.06.076.105.175.135.29.03.114.044.244.044.396v.077h-1.04c0 .099.016.19.038.267a.507.507 0 00.097.19.335.335 0 00.277.153c.09 0 .165-.03.224-.091a.589.589 0 00.143-.275l.022-.008zm-.77-.496h.778c0-.076-.015-.137-.03-.198a.521.521 0 00-.06-.145.384.384 0 00-.127-.122.272.272 0 00-.158-.046.311.311 0 00-.15.038.392.392 0 00-.119.107.551.551 0 00-.09.16.834.834 0 00-.037.206h-.008zm2.069-1.39h.254v2.167h.943v.29h-1.197v-2.457zm1.469 0h.232v.344h-.232v-.344zm0 .68h.232v1.777h-.232v-1.778zm.784 1.961c0 .046.014.092.029.122a.34.34 0 00.06.084c.03.023.06.038.097.054.038.015.082.015.127.015.053 0 .097 0 .142-.015a.279.279 0 00.105-.061.223.223 0 00.075-.092.58.58 0 00.052-.137c0-.03.015-.076.015-.145v-.244c-.022.038-.052.068-.082.099a.351.351 0 01-.09.069.23.23 0 01-.097.045.562.562 0 01-.112.016.446.446 0 01-.225-.054.727.727 0 01-.187-.16.91.91 0 01-.142-.298 1.537 1.537 0 01-.045-.389c0-.091 0-.183.023-.267.022-.084.037-.16.06-.236.03-.07.06-.13.097-.184a.659.659 0 01.12-.13.435.435 0 01.142-.076.56.56 0 01.157-.023c.037 0 .082 0 .12.016.037.007.074.03.104.053s.067.046.097.077c.03.03.06.068.083.106v-.213h.217v1.533c0 .138 0 .252-.015.351-.015.1-.03.176-.053.23a.793.793 0 01-.082.16.461.461 0 01-.127.114.379.379 0 01-.157.076.788.788 0 01-.426-.015.383.383 0 01-.173-.114.552.552 0 01-.104-.183.624.624 0 01-.03-.245l.232.046-.008.015zm-.03-1.106c0 .122.007.221.03.305a.513.513 0 00.201.328c.045.03.097.038.15.038a.335.335 0 00.15-.038.601.601 0 00.127-.114.514.514 0 00.082-.206c.015-.084.03-.183.03-.298 0-.114-.008-.206-.03-.29a.653.653 0 00-.082-.206.384.384 0 00-.128-.122.3.3 0 00-.292 0 .525.525 0 00-.202.32c-.014.084-.03.176-.03.283h-.007zm1.331-1.535h.232v.885c.03-.038.06-.076.09-.106a.475.475 0 01.21-.122.566.566 0 01.12-.016.58.58 0 01.201.038c.06.023.112.061.15.107a.511.511 0 01.097.214c.022.091.03.198.03.336v1.121h-.232V33.25c0-.077 0-.138-.022-.199a.383.383 0 00-.06-.137.79.79 0 00-.09-.077.306.306 0 00-.12-.022.299.299 0 00-.142.03.363.363 0 00-.12.1.541.541 0 00-.082.175 1.4 1.4 0 00-.03.275v.969h-.232v-2.45zm2.014 2.183l.03.267s-.06.015-.09.015h-.082c-.038 0-.075 0-.113-.008a.154.154 0 01-.09-.038.232.232 0 01-.06-.06.24.24 0 01-.037-.077 1.275 1.275 0 01-.022-.137c-.007-.061-.007-.13-.007-.222v-1.03h-.172v-.236h.172v-.443l.231-.183v.618h.24v.237h-.24v1.167c0 .03.008.053.015.069a.068.068 0 00.045.046.177.177 0 00.068.015h.112zm.995-2.183h.381l.457 1.74.09.359a.898.898 0 01.044-.16c.015-.07.038-.138.06-.222l.456-1.71h.344v2.45h-.246V32.32l-.561 2.052h-.232l-.554-2.09v2.09h-.24v-2.458zm2.109 1.566c0-.153.014-.282.044-.397a.698.698 0 01.143-.29.512.512 0 01.21-.175.57.57 0 01.508 0c.075.038.15.099.21.175a.83.83 0 01.141.282c.03.115.045.245.045.39 0 .16-.015.297-.045.42a.9.9 0 01-.134.297.578.578 0 01-.21.175.597.597 0 01-.262.054.544.544 0 01-.463-.23.943.943 0 01-.142-.29 1.621 1.621 0 01-.045-.404v-.007zm.239 0c0 .114.007.221.03.305.022.084.052.16.09.214.037.06.082.099.134.13a.31.31 0 00.165.038.265.265 0 00.15-.046.53.53 0 00.134-.13.79.79 0 00.09-.213 1.2 1.2 0 00.03-.298 1.17 1.17 0 00-.03-.298.791.791 0 00-.09-.213.365.365 0 00-.134-.13.309.309 0 00-.165-.038.342.342 0 00-.157.038.347.347 0 00-.127.13.791.791 0 00-.09.213 1.17 1.17 0 00-.03.298zm2.236.662a.43.43 0 01-.075.115.908.908 0 01-.09.084.314.314 0 01-.104.045.562.562 0 01-.112.016.446.446 0 01-.225-.054.795.795 0 01-.33-.473 1.539 1.539 0 01-.044-.389c0-.1 0-.19.023-.282.022-.092.03-.16.06-.237.03-.068.06-.13.09-.183a.659.659 0 01.119-.13.372.372 0 01.142-.076.557.557 0 01.157-.023.27.27 0 01.112.016c.038.007.075.03.105.053s.06.046.09.076.052.061.075.1v-.886h.232v2.45h-.217v-.222h-.008zm-.74-.664c0 .115.007.222.03.306a.788.788 0 00.082.213.4.4 0 00.12.13c.044.03.09.038.142.038a.305.305 0 00.142-.038.523.523 0 00.202-.32c.015-.077.03-.176.03-.29 0-.122-.008-.23-.03-.32a.541.541 0 00-.083-.222c-.037-.061-.074-.107-.127-.13a.272.272 0 00-.157-.046.238.238 0 00-.135.046.457.457 0 00-.12.122.631.631 0 00-.082.214c-.014.084-.03.19-.03.305l.016-.008zm2.278.322l.24.039a.99.99 0 01-.083.251.818.818 0 01-.135.183.537.537 0 01-.396.138.631.631 0 01-.27-.054.512.512 0 01-.209-.175.793.793 0 01-.135-.29 1.543 1.543 0 01-.044-.39c0-.152.014-.29.044-.404a.897.897 0 01.135-.297.674.674 0 01.21-.183.539.539 0 01.703.183.77.77 0 01.134.29c.03.114.045.244.045.396v.077h-1.04c0 .099.015.19.038.267a.508.508 0 00.097.19.335.335 0 00.277.153.3.3 0 00.224-.091.589.589 0 00.142-.275l.023-.008zm-.77-.496h.777c0-.076-.015-.137-.03-.198a.524.524 0 00-.06-.145.384.384 0 00-.127-.122.273.273 0 00-.157-.046.311.311 0 00-.15.038.392.392 0 00-.119.107.554.554 0 00-.09.16.843.843 0 00-.037.206h-.008zm1.234 1.786a3.84 3.84 0 00.292-.802c.06-.267.097-.534.097-.801 0-.084 0-.176-.007-.26-.008-.084-.015-.175-.03-.26l-.045-.25c-.015-.085-.038-.154-.06-.23a3.793 3.793 0 00-.09-.26c-.037-.098-.09-.213-.15-.35h.173c.157.26.269.526.344.801.075.267.12.542.12.809 0 .152-.016.305-.038.458-.022.145-.06.29-.105.427a4.617 4.617 0 01-.15.39 2.648 2.648 0 01-.171.327h-.18zM69.8 55.264v.542h-.374v1.038c0 .22 0 .35.015.389.022.06.067.099.135.099a.527.527 0 00.217-.069l.044.527a.881.881 0 01-.426.099.522.522 0 01-.337-.1.496.496 0 01-.172-.29c-.022-.09-.03-.282-.03-.572v-1.121h-.254v-.542h.255v-.511l.546-.397v.908h.381zm1.734 2.57v-.381a.837.837 0 01-.3.328.723.723 0 01-.388.114.687.687 0 01-.367-.107.636.636 0 01-.24-.312c-.052-.138-.082-.328-.082-.588v-1.625h.546v1.183c0 .335.008.549.023.64.015.092.052.16.112.214a.3.3 0 00.21.076c.09 0 .179-.03.254-.099a.483.483 0 00.15-.252c.022-.099.037-.328.037-.679v-1.083h.546v2.571h-.509.008zm1.652.001l-.838-2.572h.576l.39 1.313.111.435.113-.435.396-1.313h.561l-.823 2.572h-.486zm1.454-.733l.546-.107c.045.267.194.404.441.404.135 0 .232-.023.292-.076a.244.244 0 00.097-.199.184.184 0 00-.045-.13.397.397 0 00-.18-.083c-.448-.122-.732-.237-.86-.351-.15-.138-.224-.328-.224-.565a.76.76 0 01.224-.572c.15-.145.367-.214.651-.214.285 0 .479.054.621.16.142.107.24.283.3.52l-.517.121c-.045-.206-.18-.313-.389-.313-.134 0-.232.023-.284.062a.187.187 0 00-.082.152c0 .054.022.107.074.137.053.039.217.1.487.176.306.092.516.19.62.32.105.123.165.29.165.497a.825.825 0 01-.247.618c-.164.16-.396.244-.695.244a1.06 1.06 0 01-.659-.199.957.957 0 01-.336-.587v-.015zm3.77.732v-.381a.838.838 0 01-.3.328.723.723 0 01-.389.114.687.687 0 01-.367-.107.636.636 0 01-.239-.312c-.052-.138-.082-.328-.082-.588v-1.625h.546v1.183c0 .335.007.549.022.64.015.092.053.16.112.214a.3.3 0 00.21.076c.09 0 .18-.03.254-.099a.483.483 0 00.15-.252c.022-.099.037-.328.037-.679v-1.083h.546v2.571h-.508.007zm2.972 0h-.509v-.382a.902.902 0 01-.3.328.612.612 0 01-.35.107c-.233 0-.435-.114-.607-.351-.172-.236-.254-.572-.254-1.007 0-.435.082-.77.254-1 .165-.221.374-.336.621-.336.112 0 .225.031.322.092s.194.153.277.267v-1.274h.546v3.556zm-1.46-1.343c0 .236.023.404.06.519a.59.59 0 00.165.259c.068.061.15.084.24.084.12 0 .224-.069.314-.199s.135-.335.135-.602c0-.298-.045-.512-.128-.641-.082-.13-.194-.199-.329-.199-.127 0-.232.061-.322.191s-.134.32-.134.58v.008zm2.003 1.344v-.679h.546v.68h-.546zm2.912-1.817l-.538.122c-.038-.267-.165-.404-.374-.404a.393.393 0 00-.33.175c-.082.115-.127.313-.127.588 0 .305.045.519.127.648.083.13.195.191.33.191a.34.34 0 00.254-.107c.067-.068.112-.198.142-.381l.539.114c-.112.618-.427.931-.958.931-.337 0-.583-.13-.748-.389-.164-.26-.247-.58-.247-.946 0-.443.09-.779.277-1.008a.89.89 0 01.726-.343.88.88 0 01.59.199c.15.13.263.335.33.625l.007-.015zm.283.496c0-.252.052-.48.15-.687.097-.206.224-.358.38-.465a.922.922 0 01.532-.153c.33 0 .591.13.786.397.194.267.284.58.284.93 0 .268-.052.505-.15.718a1.139 1.139 0 01-.389.48.929.929 0 01-.53.161.965.965 0 01-.764-.359c-.202-.236-.307-.58-.307-1.022h.008zm.56.038c0 .26.053.458.15.595a.42.42 0 00.36.199c.142 0 .254-.069.351-.199.097-.137.15-.335.15-.595 0-.26-.053-.45-.15-.587a.421.421 0 00-.359-.199c-.142 0-.254.069-.359.199-.097.137-.15.328-.15.587h.008zm1.962-1.288h.501v.351a.96.96 0 01.3-.305.656.656 0 01.351-.107c.135 0 .247.03.344.1a.71.71 0 01.24.305.959.959 0 01.299-.306.65.65 0 01.703.008c.105.069.18.168.232.298.052.13.082.32.082.587v1.648h-.546v-1.472c0-.26-.022-.428-.067-.512a.237.237 0 00-.225-.13c-.12 0-.216.062-.291.176-.075.122-.112.351-.112.695v1.236h-.547v-1.412c0-.282-.015-.458-.044-.542-.038-.106-.12-.16-.24-.16a.356.356 0 00-.224.084.466.466 0 00-.15.244c-.03.107-.045.283-.045.534v1.252h-.546v-2.572h-.015zm3.299 2.632l.711-3.67h.412l-.719 3.67h-.404zm1.381-2.633h.509v.381a.822.822 0 01.277-.32.65.65 0 01.366-.115c.24 0 .442.115.614.343.172.23.254.558.254.977 0 .443-.082.786-.254 1.015-.172.229-.374.351-.614.351a.618.618 0 01-.306-.084.991.991 0 01-.3-.297v1.29h-.546v-3.55.009zm.539 1.243c0 .29.045.504.142.641.09.138.202.206.337.206.127 0 .232-.06.314-.19.082-.13.127-.336.127-.626s-.045-.473-.135-.603c-.09-.13-.194-.198-.321-.198a.374.374 0 00-.33.19c-.09.13-.134.32-.134.573v.007zm1.724.596l.546-.107c.044.267.194.404.441.404.135 0 .232-.023.292-.076a.244.244 0 00.097-.199.184.184 0 00-.045-.13.398.398 0 00-.18-.083c-.448-.122-.733-.237-.852-.351-.15-.138-.225-.328-.225-.565a.76.76 0 01.225-.572c.15-.145.366-.214.65-.214.285 0 .48.054.621.16.143.107.24.283.3.52l-.516.121c-.045-.206-.18-.313-.39-.313-.134 0-.231.023-.284.062a.187.187 0 00-.082.152c0 .054.022.107.075.137.052.039.217.1.486.176.307.092.509.19.62.32a.74.74 0 01.165.497.825.825 0 01-.246.618c-.165.16-.397.244-.696.244a1.06 1.06 0 01-.658-.199c-.172-.13-.285-.328-.337-.587l-.007-.015zm2.245-.214v-.68h1.077v.68H96.83zm3.294-.87l-.538.122c-.038-.267-.165-.404-.374-.404a.393.393 0 00-.33.175c-.082.115-.127.313-.127.588 0 .305.045.519.128.648.082.13.194.191.329.191a.34.34 0 00.254-.107c.067-.068.112-.198.142-.381l.539.114c-.112.618-.427.931-.958.931-.336 0-.59-.13-.748-.389a1.81 1.81 0 01-.247-.946c0-.443.09-.779.277-1.008a.89.89 0 01.726-.343.88.88 0 01.59.199c.15.13.263.335.33.625l.007-.015zm1.611 1l.546.114c-.075.26-.187.45-.337.572a.892.892 0 01-.561.191c-.306 0-.538-.107-.71-.313-.195-.244-.292-.58-.292-1.015 0-.434.097-.778.299-1.03a.77.77 0 01.651-.328.82.82 0 01.696.336c.194.252.291.633.291 1.13v.076h-1.369c0 .206.045.358.135.473.09.114.187.168.314.168.18 0 .292-.123.352-.367l-.015-.007zm.03-.687c0-.199-.045-.351-.127-.45-.083-.1-.172-.153-.285-.153a.35.35 0 00-.291.16c-.083.107-.12.26-.12.45h.815l.008-.007zm1.52 1.504h-.546v-2.571h.509v.366c.09-.168.165-.283.232-.344a.379.379 0 01.239-.084c.127 0 .247.046.359.13l-.172.595a.412.412 0 00-.254-.114.3.3 0 00-.202.084c-.06.053-.097.16-.127.313a6.372 6.372 0 00-.038.831v.794z" fill="#1A171B"/><path d="M105.254 55.264v.542h-.374v1.038c0 .22 0 .35.015.389.023.06.067.099.135.099a.53.53 0 00.217-.069l.045.527a.886.886 0 01-.427.099.52.52 0 01-.336-.1.49.49 0 01-.172-.29c-.023-.09-.03-.282-.03-.572v-1.121h-.255v-.542h.255v-.511l.546-.397v.908h.381z" fill="#1A171B"/><g filter="url(#filter0_d_282_10494)"><path fill-rule="evenodd" clip-rule="evenodd" d="M42.468 21.224l-4.36-4.448H25.77l-4.361 4.448-4.362 4.449v12.575l4.362 4.456 4.361 4.449h12.337l4.361-4.449 4.362-4.456V25.673l-4.362-4.449z" fill="url(#paint6_radial_282_10494)"/><path fill-rule="evenodd" clip-rule="evenodd" d="M30.544 25h-1.227v2.1h1.227V25zM21.71 35.424h2.125v-8.722h2.603v5.28c.09 2.564 1.893 3.694 4.392 3.694 2.498 0 4.301-1.13 4.376-3.694V26.45l3.284 8.974h2.23L44.563 25h-2.252l-2.686 8.165L36.978 25h-3.883v6.914c-.157 1.396-.837 1.9-2.266 1.991-1.422-.091-2.125-.595-2.267-1.991V25h-9.8v1.702h2.947v8.722zM32.355 25h-1.28v2.1h1.28V25zm-13.72 11.69v.619h25.929v-.619h-25.93zm9.695 5.426c-.194-.138-.509-.275-.95-.412-.412-.122-.68-.23-.786-.336a.47.47 0 01-.172-.359.48.48 0 01.187-.366c.128-.1.307-.145.546-.145.24 0 .412.061.54.168.126.114.209.313.246.603l.868-.046c-.015-.519-.165-.916-.45-1.198-.283-.282-.68-.42-1.189-.42-.336 0-.62.061-.852.183a1.248 1.248 0 00-.539.527 1.53 1.53 0 00-.195.786c0 .252.053.488.15.702.105.221.24.397.412.526.172.13.441.26.815.374.412.13.673.221.778.275a.553.553 0 01.322.519.674.674 0 01-.225.511c-.157.137-.359.206-.62.206-.532 0-.838-.336-.936-1l-.838.1c.12 1.22.704 1.831 1.758 1.831.591 0 1.033-.16 1.31-.473.276-.313.418-.702.418-1.168 0-.32-.052-.595-.157-.824a1.363 1.363 0 00-.441-.549v-.015zm4.13.526c0 .534-.03.878-.083 1.038a.715.715 0 01-.299.382c-.15.091-.337.137-.569.137-.276 0-.493-.069-.658-.199-.172-.122-.277-.305-.322-.541-.022-.138-.037-.435-.037-.886v-2.9H29.49v2.862c0 .802.067 1.351.202 1.649.127.297.344.526.635.694.292.16.696.252 1.212.252.517 0 .898-.1 1.205-.298.306-.198.501-.45.583-.778.09-.32.135-.84.135-1.564v-2.816h-.995v2.96l-.008.008zm4.78-2.365a1.583 1.583 0 00-.561-.466c-.202-.091-.502-.137-.906-.137h-1.585v5.357h1.63c.352 0 .636-.054.86-.153.225-.1.42-.252.577-.45.157-.199.284-.473.389-.81a4.16 4.16 0 00.157-1.212c0-.512-.053-.947-.15-1.29a2.458 2.458 0 00-.404-.847l-.007.008zm-.427 3.021c-.052.237-.12.405-.194.512a.77.77 0 01-.314.244c-.127.053-.322.084-.599.084h-.65v-3.556h.388c.352 0 .584.015.704.046.164.038.299.13.411.26.112.129.195.312.247.54.052.23.082.543.082.947 0 .382-.03.687-.082.923h.007zm-5.954-3.616v.824h.486v-.824h-.486zm1.241 0h-.486v.824h.486v-.824z" fill="#fff"/><path fill-rule="evenodd" clip-rule="evenodd" d="M30.865 25.336h-1.227v2.098h1.227v-2.098zm-8.835 10.43h2.124v-8.721h2.604v5.288c.09 2.564 1.9 3.693 4.391 3.693s4.302-1.13 4.369-3.693v-5.54l3.284 8.981h2.23l3.845-10.43h-2.252l-2.686 8.172-2.656-8.173h-3.882v6.914c-.157 1.396-.838 1.9-2.267 1.991-1.421-.091-2.124-.595-2.267-1.991v-6.914h-9.8v1.702h2.955v8.722h.008zm10.638-10.43h-1.28v2.098h1.28v-2.098zm-13.72 11.69v.618h25.929v-.618H18.948zm9.695 5.425c-.195-.145-.509-.282-.943-.412-.411-.122-.673-.23-.785-.336a.467.467 0 01-.165-.366c0-.145.06-.267.187-.366.127-.1.307-.153.539-.153.232 0 .411.061.539.175.127.115.21.313.247.596l.867-.046c-.015-.519-.164-.923-.456-1.206-.284-.282-.68-.42-1.19-.42-.336 0-.62.062-.845.176a1.249 1.249 0 00-.539.527 1.636 1.636 0 00-.194.793c0 .252.052.48.15.702.097.214.239.397.411.527.172.137.441.26.816.374.41.13.673.22.777.274a.59.59 0 01.24.206.662.662 0 01-.142.816c-.15.138-.352.207-.614.207-.53 0-.837-.328-.935-1.008l-.838.107c.12 1.221.704 1.832 1.758 1.832.591 0 1.033-.16 1.31-.473.276-.32.418-.71.418-1.175 0-.321-.052-.596-.157-.817a1.39 1.39 0 00-.448-.55l-.008.016zm4.13.526c0 .535-.023.878-.075 1.046a.715.715 0 01-.3.381c-.15.092-.336.138-.568.138-.277 0-.494-.061-.666-.191a.879.879 0 01-.314-.55c-.023-.137-.038-.434-.038-.877v-2.9h-.995v2.862c0 .801.068 1.35.195 1.648.135.298.344.526.636.694.292.168.696.245 1.212.245s.905-.092 1.204-.29c.307-.199.501-.458.591-.779.09-.32.135-.839.135-1.564v-2.808h-1.003v2.96l-.014-.015zm4.787-2.357a1.516 1.516 0 00-.568-.458c-.202-.092-.502-.138-.905-.138H34.5v5.357h1.63c.352 0 .636-.053.86-.153.225-.099.412-.251.57-.45.156-.198.283-.473.388-.816a4.16 4.16 0 00.157-1.206c0-.511-.044-.946-.142-1.29a2.39 2.39 0 00-.404-.846zm-.426 3.021c-.053.237-.12.412-.202.52a.725.725 0 01-.3.243c-.127.054-.328.077-.605.077h-.651v-3.556h.396c.344 0 .584.015.703.053.165.038.3.13.412.26a1.3 1.3 0 01.247.541c.052.23.082.542.082.939 0 .397-.03.694-.075.923h-.007zm-5.962-3.617v.825h.478v-.825h-.478zm1.234 0h-.479v.825h.479v-.825z" fill="#1A171B"/><path fill-rule="evenodd" clip-rule="evenodd" d="M48.982 14.547l-7.062-7.21H21.953l-7.061 7.21-7.062 7.211v20.404l7.062 7.211 7.061 7.219H41.92l7.062-7.219 7.062-7.21V21.757l-7.062-7.21zm-.86 24.243l-4.743 4.83-4.743 4.83H25.223l-4.743-4.83-4.743-4.83V25.123l4.743-4.83 4.743-4.83h13.413l4.743 4.83 4.743 4.83V38.79z" fill="#003E7D"/><path fill-rule="evenodd" clip-rule="evenodd" d="M38.643 48.458H25.23l-4.743-4.83-4.743-4.83v-13.66l4.743-4.83 4.743-4.83h13.413l.135.138a32.057 32.057 0 00-6.89-8.264h-9.935l-7.061 7.21-7.062 7.212v20.404l7.062 7.21 7.061 7.22h9.935a31.943 31.943 0 006.89-8.272l-.135.137v-.015z" fill="url(#paint7_radial_282_10494)"/><path fill-rule="evenodd" clip-rule="evenodd" d="M38.673 15.502l4.713 4.8 4.743 4.83V38.79l-4.743 4.83-4.713 4.8a27.332 27.332 0 005.648 5.707l4.661-4.761 7.062-7.211V21.75l-7.062-7.21-4.66-4.755a27.334 27.334 0 00-5.649 5.708v.008z" fill="url(#paint8_radial_282_10494)"/><path d="M49.932 13.608l-7.45-7.6H21.4l-7.451 7.6-7.45 7.6v21.503l7.45 7.6 7.451 7.6h21.081l7.451-7.6 7.451-7.6V21.21l-7.45-7.6zm6.12 28.539L48.99 49.35l-7.062 7.203H21.96L14.9 49.35l-7.062-7.203V32.89h7.915v5.913l4.743 4.838 4.743 4.838H38.65l4.743-4.838 4.743-4.838V32.89h7.922v9.256h-.007zM17.09 38.232V25.688l4.346-4.434 4.347-4.433h12.298l4.347 4.433 4.354 4.434v12.544l-4.354 4.434-4.347 4.44H25.784l-4.347-4.44-4.346-4.434zm38.96-7.18h-7.92v-5.929l-4.743-4.838-4.742-4.838H25.23l-4.743 4.838-4.743 4.838v5.929H7.83v-9.279l7.062-7.203 7.062-7.203H41.92l7.062 7.203 7.062 7.203v9.279h.008z" fill="#fff"/><path fill-rule="evenodd" clip-rule="evenodd" d="M49.932 13.608l-7.45-7.6H21.4l-7.451 7.6-7.45 7.6v21.503l7.45 7.6 7.451 7.6h21.081l7.451-7.6 7.451-7.6V21.21l-7.45-7.6zm7.047 28.936L49.64 50.02l-7.33 7.48H21.571l-7.331-7.478-7.331-7.477v-21.16l7.33-7.478 7.332-7.478H42.31l7.331 7.478 7.34 7.478v21.16z" fill="#1A171B"/><path fill-rule="evenodd" clip-rule="evenodd" d="M25.613 47.535l-4.474-4.563-4.473-4.564V25.513l4.473-4.563 4.474-4.563.172.427-4.347 4.433-4.354 4.441v12.545l4.354 4.441 4.347 4.433-.172.428zM7.83 31.046v-9.271l7.063-7.203 7.054-7.196-.164-.427-7.182 7.325-7.182 7.325v9.867l.412-.42z" fill="#1A171B"/><path fill-rule="evenodd" clip-rule="evenodd" d="M14.893 49.35L7.83 42.147V32.89h7.915l.411-.42H7.42v9.851l7.182 7.318 7.182 7.333.164-.428-7.054-7.195zm32.825-16.879v6.15l-4.623 4.724-4.623 4.708h-13.07l-.172.42h13.414-.008l4.75-4.838 4.736-4.83V32.89h7.922l.412-.42h-8.738zm-4.331-12.185l-4.743-4.838H25.23l.172.42h13.07l4.623 4.708 4.623 4.723v6.166l.404-.42v-5.929l-4.735-4.83z" fill="#1A171B"/><path fill-rule="evenodd" clip-rule="evenodd" d="M16.157 38.621l.508-.214V25.512l-.508-.221v13.33z" fill="url(#paint9_linear_282_10494)"/><path fill-rule="evenodd" clip-rule="evenodd" d="M42.094 6.947l7.181 7.333 7.182 7.318.524-.214-7.346-7.478-7.332-7.485-.21.526z" fill="url(#paint10_linear_282_10494)"/><path fill-rule="evenodd" clip-rule="evenodd" d="M7.419 21.598L14.6 14.28l7.182-7.333-.217-.526-7.339 7.485-7.324 7.478.517.214z" fill="url(#paint11_linear_282_10494)"/><path fill-rule="evenodd" clip-rule="evenodd" d="M38.264 16.387l4.466 4.563 4.473 4.563.516-.214-4.623-4.723-4.623-4.708-.21.519z" fill="url(#paint12_linear_282_10494)"/><path fill-rule="evenodd" clip-rule="evenodd" d="M16.665 25.513l4.474-4.563 4.474-4.563-.21-.52-4.623 4.709-4.623 4.723.508.214z" fill="url(#paint13_linear_282_10494)"/><path fill-rule="evenodd" clip-rule="evenodd" d="M47.203 38.407l-4.473 4.564-4.466 4.563.21.519 4.622-4.709 4.623-4.715-.516-.221z" fill="url(#paint14_linear_282_10494)"/><path fill-rule="evenodd" clip-rule="evenodd" d="M25.613 47.534l-4.474-4.563-4.474-4.563-.508.22 4.623 4.716 4.623 4.709.21-.52z" fill="url(#paint15_linear_282_10494)"/><path fill-rule="evenodd" clip-rule="evenodd" d="M21.782 56.974L14.6 49.64l-7.18-7.317-.517.214 7.324 7.477 7.339 7.486.217-.526z" fill="url(#paint16_linear_282_10494)"/><path fill-rule="evenodd" clip-rule="evenodd" d="M56.457 42.323l-7.182 7.318-7.181 7.333.21.526 7.33-7.486 7.347-7.477-.524-.214z" fill="#9CA09F"/><path d="M56.457 31.464H47.72v1.008h8.737v-1.008z" fill="url(#paint17_linear_282_10494)"/><path fill-rule="evenodd" clip-rule="evenodd" d="M21.783 6.947h20.311l.21-.526H21.566l.217.526z" fill="url(#paint18_linear_282_10494)"/><path fill-rule="evenodd" clip-rule="evenodd" d="M38.473 15.868h-13.07l.21.519h12.65l.21-.52z" fill="url(#paint19_linear_282_10494)"/><path fill-rule="evenodd" clip-rule="evenodd" d="M16.156 31.464H7.42v-9.866l-.517-.213v21.151l.517-.213v-9.851h8.737v-1.008z" fill="url(#paint20_linear_282_10494)"/><path fill-rule="evenodd" clip-rule="evenodd" d="M21.566 57.5h20.738l-.21-.526h-20.31l-.218.526z" fill="url(#paint21_linear_282_10494)"/><path fill-rule="evenodd" clip-rule="evenodd" d="M56.984 42.536V21.384l-.524.214v20.725l.524.213z" fill="url(#paint22_linear_282_10494)"/><path fill-rule="evenodd" clip-rule="evenodd" d="M47.717 38.621v-13.33l-.516.22v12.896l.516.214z" fill="url(#paint23_linear_282_10494)"/><path fill-rule="evenodd" clip-rule="evenodd" d="M25.404 48.053h13.069l-.21-.518h-12.65l-.21.518z" fill="url(#paint24_linear_282_10494)"/></g><path d="M14.002 16.936l-.442.45-.194-.199 1.07-1.09.194.198-.441.457 1.45 1.473-.179.183-1.45-1.473h-.008z" fill="#fff"/><path d="M14.002 16.936l-.442.45-.194-.199 1.07-1.09.194.198-.441.457 1.45 1.473-.179.183-1.45-1.473h-.008zm2.495.96s.045-.023.068-.038c.015-.016.037-.023.045-.039.015-.015.03-.038.045-.053a.274.274 0 01.022-.053c0-.016.008-.039 0-.062 0-.022 0-.045-.015-.068l-.037-.076a5.508 5.508 0 00-.098-.191l-1.563-.832.18-.183.897.496c.06.03.112.069.172.1.06.03.12.068.18.106a2.051 2.051 0 01-.105-.168 1.336 1.336 0 01-.097-.175l-.486-.924.164-.168.838 1.61c.052.107.097.199.135.267.03.077.06.13.067.168.007.038.015.084.022.115v.099c0 .03-.015.061-.03.084a.273.273 0 01-.052.076.408.408 0 01-.06.046.233.233 0 01-.075.038l-.21-.175h-.007z" fill="#fff"/><path d="M16.497 17.896s.045-.023.068-.038c.015-.016.037-.023.045-.039.015-.015.03-.038.045-.053a.274.274 0 01.022-.053c0-.016.008-.039 0-.062 0-.022 0-.045-.015-.068l-.037-.076a5.508 5.508 0 00-.098-.191l-1.563-.832.18-.183.897.496c.06.03.112.069.172.1.06.03.12.068.18.106a2.051 2.051 0 01-.105-.168 1.336 1.336 0 01-.097-.175l-.486-.924.164-.168.838 1.61c.052.107.097.199.135.267.03.077.06.13.067.168.007.038.015.084.022.115v.099c0 .03-.015.061-.03.084a.273.273 0 01-.052.076.408.408 0 01-.06.046.233.233 0 01-.075.038l-.21-.175h-.007zm-.481-2.487l.15-.153.156.16a.53.53 0 01-.022-.145c0-.046 0-.084.007-.122 0-.038.023-.076.045-.107a.489.489 0 01.202-.19.491.491 0 01.15-.046c.052-.008.112 0 .172 0 .06.007.12.03.187.06.067.031.127.07.195.115.067.046.127.107.194.176.105.099.18.206.24.305.06.1.09.198.104.298a.925.925 0 01-.015.259.48.48 0 01-.3.32.435.435 0 01-.104.016c-.037 0-.075 0-.12-.008l.576.588-.164.168-1.646-1.68-.007-.014zm.755.457c.075.077.15.145.225.191a.68.68 0 00.194.084c.06.008.12.008.172 0a.274.274 0 00.127-.076.282.282 0 00.075-.13.349.349 0 000-.175.659.659 0 00-.082-.206 1.006 1.006 0 00-.187-.23 1.185 1.185 0 00-.225-.182.54.54 0 00-.202-.084.327.327 0 00-.172 0 .272.272 0 00-.127.076.353.353 0 00-.067.13c-.008.053 0 .114 0 .183a.694.694 0 00.082.213 1.2 1.2 0 00.18.23l.007-.024z" fill="#fff"/><path d="M16.016 15.409l.15-.153.156.16a.53.53 0 01-.022-.145c0-.046 0-.084.007-.122 0-.038.023-.076.045-.107a.489.489 0 01.202-.19.491.491 0 01.15-.046c.052-.008.112 0 .172 0 .06.007.12.03.187.06.067.031.127.07.195.115.067.046.127.107.194.176.105.099.18.206.24.305.06.1.09.198.104.298a.925.925 0 01-.015.259.48.48 0 01-.3.32.435.435 0 01-.104.016c-.037 0-.075 0-.12-.008l.576.588-.164.168-1.646-1.68-.007-.014zm.755.457c.075.077.15.145.225.191a.68.68 0 00.194.084c.06.008.12.008.172 0a.274.274 0 00.127-.076.282.282 0 00.075-.13.349.349 0 000-.175.659.659 0 00-.082-.206 1.006 1.006 0 00-.187-.23 1.185 1.185 0 00-.225-.182.54.54 0 00-.202-.084.327.327 0 00-.172 0 .272.272 0 00-.127.076.353.353 0 00-.067.13c-.008.053 0 .114 0 .183a.694.694 0 00.082.213 1.2 1.2 0 00.18.23l.007-.024zm1.783-1.404l.194-.145a.92.92 0 01.112.23c.023.076.03.144.023.22a.46.46 0 01-.053.199.694.694 0 01-.127.176.622.622 0 01-.224.152c-.082.03-.172.046-.262.03a.737.737 0 01-.292-.099 1.136 1.136 0 01-.292-.236 1.248 1.248 0 01-.239-.313.79.79 0 01-.105-.298.617.617 0 01.381-.64.58.58 0 01.263-.023.737.737 0 01.291.099c.098.06.195.137.3.236l.052.054-.726.74c.075.069.142.114.202.152a.48.48 0 00.195.061c.06 0 .12 0 .165-.015a.312.312 0 00.134-.084.316.316 0 00.097-.22.69.69 0 00-.082-.29l-.007.014zm-.876.222l.546-.557a1.014 1.014 0 00-.157-.115.41.41 0 00-.142-.053.676.676 0 00-.18.007.346.346 0 00-.224.214c-.015.046-.022.1-.015.16 0 .061.023.115.045.176.03.053.068.114.112.168h.015z" fill="#fff"/><path d="M18.554 14.462l.194-.145a.92.92 0 01.112.23c.023.076.03.144.023.22a.46.46 0 01-.053.199.694.694 0 01-.127.176.622.622 0 01-.224.152c-.082.03-.172.046-.262.03a.737.737 0 01-.292-.099 1.136 1.136 0 01-.292-.236 1.248 1.248 0 01-.239-.313.79.79 0 01-.105-.298.617.617 0 01.381-.64.58.58 0 01.263-.023.737.737 0 01.291.099c.098.06.195.137.3.236l.052.054-.726.74c.075.069.142.114.202.152a.48.48 0 00.195.061c.06 0 .12 0 .165-.015a.312.312 0 00.134-.084.316.316 0 00.097-.22.69.69 0 00-.082-.29l-.007.014zm-.876.222l.546-.557a1.014 1.014 0 00-.157-.115.41.41 0 00-.142-.053.676.676 0 00-.18.007.346.346 0 00-.224.214c-.015.046-.022.1-.015.16 0 .061.023.115.045.176.03.053.068.114.112.168h.015zm-.115 6.914l.202.16-.052.076c-.023.023-.038.046-.053.061a.553.553 0 01-.082.07.201.201 0 01-.082.037h-.082c-.03 0-.053-.015-.083-.023a.564.564 0 01-.104-.076c-.045-.038-.09-.084-.15-.145l-.688-.702-.12.122-.157-.16.12-.122-.292-.298.045-.29.419.42.164-.168.157.16-.164.168.696.71s.06.06.082.076c.022.015.045.03.052.03h.06c.023 0 .037-.022.06-.038.007-.007.022-.022.03-.038.007-.015.022-.03.037-.046l-.015.016z" fill="#fff"/><path d="M17.563 21.598l.202.16-.052.076c-.023.023-.038.046-.053.061a.553.553 0 01-.082.07.201.201 0 01-.082.037h-.082c-.03 0-.053-.015-.083-.023a.564.564 0 01-.104-.076c-.045-.038-.09-.084-.15-.145l-.688-.702-.12.122-.157-.16.12-.122-.292-.298.045-.29.419.42.164-.168.157.16-.164.168.696.71s.06.06.082.076c.022.015.045.03.052.03h.06c.023 0 .037-.022.06-.038.007-.007.022-.022.03-.038.007-.015.022-.03.037-.046l-.015.016zm.64-1.061l.195-.145a.92.92 0 01.112.229c.022.076.03.152.022.221a.46.46 0 01-.052.198.694.694 0 01-.127.176.622.622 0 01-.225.152c-.082.031-.164.046-.262.031a.737.737 0 01-.291-.1 1.275 1.275 0 01-.292-.228 1.242 1.242 0 01-.24-.313.79.79 0 01-.104-.297.615.615 0 01.172-.504.554.554 0 01.217-.137.594.594 0 01.262-.023.737.737 0 01.291.099c.098.053.195.137.3.236l.052.054-.726.747c.068.07.142.115.202.153a.41.41 0 00.195.061c.06 0 .12 0 .164-.015a.31.31 0 00.135-.084.316.316 0 00.097-.221.595.595 0 00-.082-.29h-.015zm-.875.221l.546-.557a1.014 1.014 0 00-.157-.114.41.41 0 00-.142-.054c-.068-.008-.12 0-.18.008a.312.312 0 00-.135.084.346.346 0 00-.082.13c-.015.045-.022.099-.015.16 0 .06.023.114.045.175.03.054.067.115.112.168h.008z" fill="#fff"/><path d="M18.203 20.537l.195-.145a.92.92 0 01.112.229c.022.076.03.152.022.221a.46.46 0 01-.052.198.694.694 0 01-.127.176.622.622 0 01-.225.152c-.082.031-.164.046-.262.031a.737.737 0 01-.291-.1 1.275 1.275 0 01-.292-.228 1.242 1.242 0 01-.24-.313.79.79 0 01-.104-.297.615.615 0 01.172-.504.554.554 0 01.217-.137.594.594 0 01.262-.023.737.737 0 01.291.099c.098.053.195.137.3.236l.052.054-.726.747c.068.07.142.115.202.153a.41.41 0 00.195.061c.06 0 .12 0 .164-.015a.31.31 0 00.135-.084.316.316 0 00.097-.221.595.595 0 00-.082-.29h-.015zm-.875.221l.546-.557a1.014 1.014 0 00-.157-.114.41.41 0 00-.142-.054c-.068-.008-.12 0-.18.008a.312.312 0 00-.135.084.346.346 0 00-.082.13c-.015.045-.022.099-.015.16 0 .06.023.114.045.175.03.054.067.115.112.168h.008zm1.232-.534l.128-.198a.57.57 0 00.142.084.41.41 0 00.127.023.308.308 0 00.12-.03.356.356 0 00.112-.085.507.507 0 00.082-.114.218.218 0 00.03-.115c0-.038 0-.076-.015-.106a.27.27 0 00-.135-.145c-.03-.008-.06-.016-.09-.008a.176.176 0 00-.089.03c-.037.016-.09.046-.15.077a1.816 1.816 0 01-.216.107c-.06.023-.105.045-.143.053-.037.008-.067.008-.104.008a.236.236 0 01-.105-.023c-.038-.008-.067-.03-.105-.046-.037-.015-.06-.046-.09-.076a.63.63 0 01-.12-.168.534.534 0 01-.037-.183.42.42 0 01.045-.191.902.902 0 01.127-.183.59.59 0 01.113-.092.499.499 0 01.12-.06.332.332 0 01.119-.024h.112c.038 0 .075.023.12.046s.09.053.135.092l-.143.19a.295.295 0 00-.209-.084c-.067 0-.135.039-.194.1a.508.508 0 00-.083.106c-.015.039-.03.07-.037.1 0 .03 0 .06.015.091.015.03.022.054.045.077a.155.155 0 00.074.045c.03.008.053.016.083 0 .015 0 .045-.015.09-.03.037-.023.097-.046.164-.084l.225-.115a.683.683 0 01.142-.053c.03-.008.067-.015.097-.008.03.008.067.008.097.023.03.008.068.023.097.046.03.023.068.046.098.076.06.061.097.122.127.184a.48.48 0 01.045.206.492.492 0 01-.053.206.819.819 0 01-.142.198c-.12.122-.24.183-.374.19a.655.655 0 01-.411-.16l.015.023z" fill="#fff"/><path d="M18.56 20.224l.128-.198a.57.57 0 00.142.084.41.41 0 00.127.023.308.308 0 00.12-.03.356.356 0 00.112-.085.507.507 0 00.082-.114.218.218 0 00.03-.115c0-.038 0-.076-.015-.106a.27.27 0 00-.135-.145c-.03-.008-.06-.016-.09-.008a.176.176 0 00-.089.03c-.037.016-.09.046-.15.077a1.816 1.816 0 01-.216.107c-.06.023-.105.045-.143.053-.037.008-.067.008-.104.008a.236.236 0 01-.105-.023c-.038-.008-.067-.03-.105-.046-.037-.015-.06-.046-.09-.076a.63.63 0 01-.12-.168.534.534 0 01-.037-.183.42.42 0 01.045-.191.902.902 0 01.127-.183.59.59 0 01.113-.092.499.499 0 01.12-.06.332.332 0 01.119-.024h.112c.038 0 .075.023.12.046s.09.053.135.092l-.143.19a.295.295 0 00-.209-.084c-.067 0-.135.039-.194.1a.508.508 0 00-.083.106c-.015.039-.03.07-.037.1 0 .03 0 .06.015.091.015.03.022.054.045.077a.155.155 0 00.074.045c.03.008.053.016.083 0 .015 0 .045-.015.09-.03.037-.023.097-.046.164-.084l.225-.115a.683.683 0 01.142-.053c.03-.008.067-.015.097-.008.03.008.067.008.097.023.03.008.068.023.097.046.03.023.068.046.098.076.06.061.097.122.127.184a.48.48 0 01.045.206.492.492 0 01-.053.206.819.819 0 01-.142.198c-.12.122-.24.183-.374.19a.655.655 0 01-.411-.16l.015.023zm1.565-1.244l.202.16-.053.077a.546.546 0 01-.135.13.276.276 0 01-.082.038h-.082c-.03 0-.052-.016-.082-.023a.572.572 0 01-.105-.076 2.39 2.39 0 01-.15-.145l-.688-.702-.12.122-.156-.16.12-.123-.293-.297.045-.29.42.42.164-.168.157.16-.165.168.704.71s.06.06.082.076c.022.015.045.03.052.03h.06c.023 0 .038-.023.06-.038.007-.008.015-.023.03-.038.007-.015.022-.03.037-.046l-.022.015z" fill="#fff"/><path d="M20.125 18.98l.202.16-.053.077a.546.546 0 01-.135.13.276.276 0 01-.082.038h-.082c-.03 0-.052-.016-.082-.023a.572.572 0 01-.105-.076 2.39 2.39 0 01-.15-.145l-.688-.702-.12.122-.156-.16.12-.123-.293-.297.045-.29.42.42.164-.168.157.16-.165.168.704.71s.06.06.082.076c.022.015.045.03.052.03h.06c.023 0 .038-.023.06-.038.007-.008.015-.023.03-.038.007-.015.022-.03.037-.046l-.022.015zm.631-1.06l.195-.145a.92.92 0 01.112.23c.022.076.03.144.022.22a.46.46 0 01-.052.199.694.694 0 01-.127.175.607.607 0 01-.486.19.736.736 0 01-.292-.098 1.275 1.275 0 01-.292-.229 1.398 1.398 0 01-.24-.313.944.944 0 01-.104-.297.615.615 0 01.381-.641.583.583 0 01.262-.023.739.739 0 01.292.099c.097.061.195.137.3.237l.052.053-.726.74c.067.069.142.115.202.153.06.038.135.053.195.06.06 0 .12 0 .164-.015a.31.31 0 00.135-.083.316.316 0 00.097-.222.594.594 0 00-.082-.29h-.008zm-.875.222l.546-.557a1.024 1.024 0 00-.157-.115.41.41 0 00-.142-.053.676.676 0 00-.18.007c-.052.008-.097.046-.142.084a.345.345 0 00-.082.13.366.366 0 00-.015.16c0 .061.022.115.045.176.03.053.067.114.112.168h.015z" fill="#fff"/><path d="M20.756 17.92l.195-.145a.92.92 0 01.112.23c.022.076.03.144.022.22a.46.46 0 01-.052.199.694.694 0 01-.127.175.607.607 0 01-.486.19.736.736 0 01-.292-.098 1.275 1.275 0 01-.292-.229 1.398 1.398 0 01-.24-.313.944.944 0 01-.104-.297.615.615 0 01.381-.641.583.583 0 01.262-.023.739.739 0 01.292.099c.097.061.195.137.3.237l.052.053-.726.74c.067.069.142.115.202.153.06.038.135.053.195.06.06 0 .12 0 .164-.015a.31.31 0 00.135-.083.316.316 0 00.097-.222.594.594 0 00-.082-.29h-.008zm-.875.222l.546-.557a1.024 1.024 0 00-.157-.115.41.41 0 00-.142-.053.676.676 0 00-.18.007c-.052.008-.097.046-.142.084a.345.345 0 00-.082.13.366.366 0 00-.015.16c0 .061.022.115.045.176.03.053.067.114.112.168h.015zm2.132-1.039c.015.046.023.092.03.13v.122a.27.27 0 01-.045.107c-.015.03-.045.06-.067.091-.06.061-.12.1-.195.122a.587.587 0 01-.261.016.757.757 0 01-.292-.107 1.547 1.547 0 01-.471-.443 1.394 1.394 0 01-.113-.206.7.7 0 01-.06-.19.696.696 0 010-.176.502.502 0 01.135-.282.26.26 0 01.09-.069c.03-.015.067-.03.105-.046.037 0 .075-.007.12-.007.037 0 .082 0 .12.015l-.592-.603.165-.168 1.646 1.671-.158.16-.15-.152-.007.015zm-.965.084c.075.076.15.145.225.183a.633.633 0 00.202.084.33.33 0 00.172 0 .274.274 0 00.127-.076.219.219 0 00.067-.13.318.318 0 000-.168.594.594 0 00-.075-.198 1.597 1.597 0 00-.404-.412.697.697 0 00-.209-.092.356.356 0 00-.18 0 .254.254 0 00-.134.084.238.238 0 00-.068.13.637.637 0 000 .168c.015.06.038.13.083.198.045.069.105.145.187.23h.007z" fill="#fff"/><path d="M22.013 17.103c.015.046.023.092.03.13v.122a.27.27 0 01-.045.107c-.015.03-.045.06-.067.091-.06.061-.12.1-.195.122a.587.587 0 01-.261.016.757.757 0 01-.292-.107 1.547 1.547 0 01-.471-.443 1.394 1.394 0 01-.113-.206.7.7 0 01-.06-.19.696.696 0 010-.176.502.502 0 01.135-.282.26.26 0 01.09-.069c.03-.015.067-.03.105-.046.037 0 .075-.007.12-.007.037 0 .082 0 .12.015l-.592-.603.165-.168 1.646 1.671-.158.16-.15-.152-.007.015zm-.965.084c.075.076.15.145.225.183a.633.633 0 00.202.084.33.33 0 00.172 0 .274.274 0 00.127-.076.219.219 0 00.067-.13.318.318 0 000-.168.594.594 0 00-.075-.198 1.597 1.597 0 00-.404-.412.697.697 0 00-.209-.092.356.356 0 00-.18 0 .254.254 0 00-.134.084.238.238 0 00-.068.13.637.637 0 000 .168c.015.06.038.13.083.198.045.069.105.145.187.23h.007zm22.97-6.645l.516.527c.06.06.105.122.15.167.037.054.067.1.09.138a.67.67 0 01.044.175c0 .061 0 .122-.015.184a.674.674 0 01-.074.19 1.01 1.01 0 01-.374.359.618.618 0 01-.247.076.41.41 0 01-.262-.046 1.233 1.233 0 01-.277-.206l-.344-.358-.673.694-.18-.183 1.66-1.702-.014-.015zm-.255 1.35c.053.062.105.1.165.13a.308.308 0 00.157.046.415.415 0 00.307-.153c.03-.037.06-.068.082-.106a.329.329 0 00.045-.107c.008-.038.015-.069.015-.107 0-.038 0-.06-.007-.091a.292.292 0 00-.06-.1 1.533 1.533 0 00-.112-.13l-.352-.358-.599.61.352.36.008.007z" fill="#fff"/><path d="M44.018 10.542l.516.527c.06.06.105.122.15.167.037.054.067.1.09.138a.67.67 0 01.044.175c0 .061 0 .122-.015.184a.674.674 0 01-.074.19 1.01 1.01 0 01-.374.359.618.618 0 01-.247.076.41.41 0 01-.262-.046 1.233 1.233 0 01-.277-.206l-.344-.358-.673.694-.18-.183 1.66-1.702-.014-.015zm-.255 1.35c.053.062.105.1.165.13a.308.308 0 00.157.046.415.415 0 00.307-.153c.03-.037.06-.068.082-.106a.329.329 0 00.045-.107c.008-.038.015-.069.015-.107 0-.038 0-.06-.007-.091a.292.292 0 00-.06-.1 1.533 1.533 0 00-.112-.13l-.352-.358-.599.61.352.36.008.007zm1.062.404l.15.153-.188.19a.904.904 0 01.165-.045c.045-.008.082-.015.112-.015s.06.007.082.023a.26.26 0 01.135.153.74.74 0 01.038.137l-.24.137s-.015-.061-.03-.091c-.015-.031-.03-.054-.045-.077a.408.408 0 00-.06-.046c-.022-.007-.044-.015-.074-.015h-.083c-.03.008-.052.023-.082.038a.95.95 0 00-.142.1 1.86 1.86 0 00-.135.122l-.628.64-.165-.167 1.205-1.236h-.015z" fill="#fff"/><path d="M44.825 12.296l.15.153-.188.19a.904.904 0 01.165-.045c.045-.008.082-.015.112-.015s.06.007.082.023a.26.26 0 01.135.153.74.74 0 01.038.137l-.24.137s-.015-.061-.03-.091c-.015-.031-.03-.054-.045-.077a.408.408 0 00-.06-.046c-.022-.007-.044-.015-.074-.015h-.083c-.03.008-.052.023-.082.038a.95.95 0 00-.142.1 1.86 1.86 0 00-.135.122l-.628.64-.165-.167 1.205-1.236h-.015zm-.012 1.214c.105-.108.203-.184.307-.245a.769.769 0 01.3-.1.626.626 0 01.269.031.614.614 0 01.367.374c.03.084.037.176.03.275a.65.65 0 01-.09.297c-.053.1-.135.199-.232.306a1.517 1.517 0 01-.315.26.836.836 0 01-.299.106.579.579 0 01-.262-.03.622.622 0 01-.224-.153.824.824 0 01-.15-.222.553.553 0 01-.03-.274.852.852 0 01.098-.305c.06-.1.134-.207.239-.313l-.008-.008zm.173.175c-.083.083-.142.16-.187.229a.631.631 0 00-.083.213.487.487 0 00.008.183.296.296 0 00.09.145.313.313 0 00.134.084.355.355 0 00.18 0 .667.667 0 00.21-.084c.074-.046.141-.107.224-.183a.961.961 0 00.18-.229.964.964 0 00.082-.213.492.492 0 00-.008-.184.296.296 0 00-.09-.145.338.338 0 00-.142-.083.358.358 0 00-.18 0 .667.667 0 00-.209.084 1.947 1.947 0 00-.224.183h.015z" fill="#fff"/><path d="M44.813 13.51c.105-.108.203-.184.307-.245a.769.769 0 01.3-.1.626.626 0 01.269.031.614.614 0 01.367.374c.03.084.037.176.03.275a.65.65 0 01-.09.297c-.053.1-.135.199-.232.306a1.517 1.517 0 01-.315.26.836.836 0 01-.299.106.579.579 0 01-.262-.03.622.622 0 01-.224-.153.824.824 0 01-.15-.222.553.553 0 01-.03-.274.852.852 0 01.098-.305c.06-.1.134-.207.239-.313l-.008-.008zm.173.175c-.083.083-.142.16-.187.229a.631.631 0 00-.083.213.487.487 0 00.008.183.296.296 0 00.09.145.313.313 0 00.134.084.355.355 0 00.18 0 .667.667 0 00.21-.084c.074-.046.141-.107.224-.183a.961.961 0 00.18-.229.964.964 0 00.082-.213.492.492 0 00-.008-.184.296.296 0 00-.09-.145.338.338 0 00-.142-.083.358.358 0 00-.18 0 .667.667 0 00-.209.084 1.947 1.947 0 00-.224.183h.015zm1.158 2.099c-.045.015-.09.022-.135.03-.045 0-.082 0-.12-.008-.037-.015-.075-.022-.104-.045a70.13 70.13 0 01-.09-.069.59.59 0 01-.127-.206.617.617 0 01-.023-.267.79.79 0 01.105-.298c.06-.106.135-.206.232-.305.067-.069.135-.13.202-.183a.679.679 0 01.202-.114.665.665 0 01.187-.062.611.611 0 01.33.046.502.502 0 01.126.092c.03.03.052.053.067.091a.91.91 0 01.045.115c0 .038.008.076.008.122 0 .038 0 .084-.015.122l.598-.618.172.168-1.66 1.701-.157-.16.15-.152h.007zm-.083-1c-.082.084-.142.16-.187.229a.517.517 0 00-.082.206.349.349 0 000 .175.24.24 0 00.075.13.273.273 0 00.127.076.3.3 0 00.165 0 .779.779 0 00.194-.076 1.368 1.368 0 00.412-.42.729.729 0 00.09-.213.377.377 0 000-.183.315.315 0 00-.083-.145.211.211 0 00-.127-.069.65.65 0 00-.172 0 .758.758 0 00-.202.092.995.995 0 00-.225.19l.015.008z" fill="#fff"/><path d="M46.144 15.784c-.045.015-.09.022-.135.03-.045 0-.082 0-.12-.008-.037-.015-.075-.022-.104-.045a70.13 70.13 0 01-.09-.069.59.59 0 01-.127-.206.617.617 0 01-.023-.267.79.79 0 01.105-.298c.06-.106.135-.206.232-.305.067-.069.135-.13.202-.183a.679.679 0 01.202-.114.665.665 0 01.187-.062.611.611 0 01.33.046.502.502 0 01.126.092c.03.03.052.053.067.091a.91.91 0 01.045.115c0 .038.008.076.008.122 0 .038 0 .084-.015.122l.598-.618.172.168-1.66 1.701-.157-.16.15-.152h.007zm-.083-1c-.082.084-.142.16-.187.229a.517.517 0 00-.082.206.349.349 0 000 .175.24.24 0 00.075.13.273.273 0 00.127.076.3.3 0 00.165 0 .779.779 0 00.194-.076 1.368 1.368 0 00.412-.42.729.729 0 00.09-.213.377.377 0 000-.183.315.315 0 00-.083-.145.211.211 0 00-.127-.069.65.65 0 00-.172 0 .758.758 0 00-.202.092.995.995 0 00-.225.19l.015.008zm1.193 2.083a1.098 1.098 0 01-.158.03c-.044 0-.097 0-.134-.007a.385.385 0 01-.12-.046.567.567 0 01-.105-.084c-.037-.038-.067-.084-.097-.122a.495.495 0 01-.045-.137v-.145a.27.27 0 01.045-.13.516.516 0 01.097-.137c.038-.054.09-.107.142-.16l.749-.771.164.168-.673.686c-.06.069-.112.122-.15.168a.698.698 0 00-.082.114.378.378 0 00-.03.084v.084c0 .03.015.061.023.084a.312.312 0 00.187.16.371.371 0 00.164.016c.052 0 .105-.03.172-.077.06-.045.135-.099.21-.183l.65-.663.172.167-1.204 1.237-.15-.153.18-.183h-.008z" fill="#fff"/><path d="M47.254 16.867a1.098 1.098 0 01-.158.03c-.044 0-.097 0-.134-.007a.385.385 0 01-.12-.046.567.567 0 01-.105-.084c-.037-.038-.067-.084-.097-.122a.495.495 0 01-.045-.137v-.145a.27.27 0 01.045-.13.516.516 0 01.097-.137c.038-.054.09-.107.142-.16l.749-.771.164.168-.673.686c-.06.069-.112.122-.15.168a.698.698 0 00-.082.114.378.378 0 00-.03.084v.084c0 .03.015.061.023.084a.312.312 0 00.187.16.371.371 0 00.164.016c.052 0 .105-.03.172-.077.06-.045.135-.099.21-.183l.65-.663.172.167-1.204 1.237-.15-.153.18-.183h-.008zm1.349.823l.142.199a1.172 1.172 0 01-.24.145.658.658 0 01-.231.046.47.47 0 01-.21-.046.65.65 0 01-.172-.122.587.587 0 01-.172-.488.79.79 0 01.105-.298 1.716 1.716 0 01.546-.565.755.755 0 01.292-.107.581.581 0 01.261.023.627.627 0 01.344.313.42.42 0 01.045.19c0 .07 0 .138-.03.215a.93.93 0 01-.12.22l-.194-.136a.581.581 0 00.068-.138.43.43 0 00.022-.13c0-.045 0-.084-.015-.114a.385.385 0 00-.06-.092.336.336 0 00-.142-.084.46.46 0 00-.18-.007.542.542 0 00-.201.084.995.995 0 00-.225.19c-.082.085-.15.16-.194.237a.787.787 0 00-.09.206.674.674 0 00.007.176.401.401 0 00.083.145c.03.03.067.053.104.068.038.015.083.023.128.015a.395.395 0 00.15-.038.848.848 0 00.164-.107h.015z" fill="#fff"/><path d="M48.603 17.69l.142.199a1.172 1.172 0 01-.24.145.658.658 0 01-.231.046.47.47 0 01-.21-.046.65.65 0 01-.172-.122.587.587 0 01-.172-.488.79.79 0 01.105-.298 1.716 1.716 0 01.546-.565.755.755 0 01.292-.107.581.581 0 01.261.023.627.627 0 01.344.313.42.42 0 01.045.19c0 .07 0 .138-.03.215a.93.93 0 01-.12.22l-.194-.136a.581.581 0 00.068-.138.43.43 0 00.022-.13c0-.045 0-.084-.015-.114a.385.385 0 00-.06-.092.336.336 0 00-.142-.084.46.46 0 00-.18-.007.542.542 0 00-.201.084.995.995 0 00-.225.19c-.082.085-.15.16-.194.237a.787.787 0 00-.09.206.674.674 0 00.007.176.401.401 0 00.083.145c.03.03.067.053.104.068.038.015.083.023.128.015a.395.395 0 00.15-.038.848.848 0 00.164-.107h.015zm.433.979l-.157.206-.075-.054c-.023-.023-.045-.038-.06-.06-.03-.031-.052-.062-.075-.092a.422.422 0 01-.037-.092v-.084c0-.03.015-.053.022-.084a.577.577 0 01.075-.107c.038-.045.082-.099.142-.16l.696-.717-.12-.122.157-.16.12.122.3-.306.291.046-.419.428.172.175-.157.16-.172-.175-.71.725s-.06.06-.083.091c-.022.023-.03.046-.037.061v.061c0 .023.022.039.037.061.008.008.023.023.037.03.015.009.03.024.045.04l.008.007z" fill="#fff"/><path d="M49.036 18.669l-.157.206-.075-.054c-.023-.023-.045-.038-.06-.06-.03-.031-.052-.062-.075-.092a.422.422 0 01-.037-.092v-.084c0-.03.015-.053.022-.084a.577.577 0 01.075-.107c.038-.045.082-.099.142-.16l.696-.717-.12-.122.157-.16.12.122.3-.306.291.046-.419.428.172.175-.157.16-.172-.175-.71.725s-.06.06-.083.091c-.022.023-.03.046-.037.061v.061c0 .023.022.039.037.061.008.008.023.023.037.03.015.009.03.024.045.04l.008.007zm1.207-.872l.164.168-1.204 1.236-.172-.168 1.204-1.236h.008zm.456-.473l.165.168-.232.244-.172-.168.231-.244h.008z" fill="#fff"/><path d="M50.243 17.797l.164.168-1.204 1.236-.172-.168 1.204-1.236h.008zm.456-.473l.165.168-.232.244-.172-.168.231-.244h.008zm-.692 1.466a1.46 1.46 0 01.306-.245.694.694 0 01.569-.068.6.6 0 01.366.374c.03.084.038.175.03.274a.757.757 0 01-.09.298 1.743 1.743 0 01-.546.565.71.71 0 01-.299.106.578.578 0 01-.262-.03.62.62 0 01-.224-.153.824.824 0 01-.15-.221.662.662 0 01-.037-.275.852.852 0 01.097-.305c.06-.1.135-.206.24-.313v-.007zm.172.175a1.49 1.49 0 00-.187.229.694.694 0 00-.083.214.49.49 0 00.008.183.296.296 0 00.09.145.312.312 0 00.134.084.355.355 0 00.18 0 .523.523 0 00.21-.084c.074-.046.141-.107.224-.183a.96.96 0 00.18-.23.667.667 0 00.074-.213.491.491 0 00-.008-.183.295.295 0 00-.09-.145.338.338 0 00-.141-.084.358.358 0 00-.18 0 .667.667 0 00-.21.084 1.958 1.958 0 00-.224.183h.023z" fill="#fff"/><path d="M50.007 18.79a1.46 1.46 0 01.306-.245.694.694 0 01.569-.068.6.6 0 01.366.374c.03.084.038.175.03.274a.757.757 0 01-.09.298 1.743 1.743 0 01-.546.565.71.71 0 01-.299.106.578.578 0 01-.262-.03.62.62 0 01-.224-.153.824.824 0 01-.15-.221.662.662 0 01-.037-.275.852.852 0 01.097-.305c.06-.1.135-.206.24-.313v-.007zm.172.175a1.49 1.49 0 00-.187.229.694.694 0 00-.083.214.49.49 0 00.008.183.296.296 0 00.09.145.312.312 0 00.134.084.355.355 0 00.18 0 .523.523 0 00.21-.084c.074-.046.141-.107.224-.183a.96.96 0 00.18-.23.667.667 0 00.074-.213.491.491 0 00-.008-.183.295.295 0 00-.09-.145.338.338 0 00-.141-.084.358.358 0 00-.18 0 .667.667 0 00-.21.084 1.958 1.958 0 00-.224.183h.023zm1.578.365l.15.153-.173.175a.508.508 0 01.15-.023c.045 0 .09 0 .135.008a.328.328 0 01.12.046.567.567 0 01.104.084c.03.03.052.053.067.084.023.03.038.06.045.099.008.03.023.069.023.099v.1a.2.2 0 01-.023.09c-.015.031-.03.07-.045.1a.559.559 0 01-.09.122 1.28 1.28 0 01-.142.153l-.74.755-.172-.168.733-.748a.71.71 0 00.105-.122c.03-.038.044-.068.06-.099.014-.03.022-.06.03-.084v-.084a.13.13 0 00-.023-.076.416.416 0 00-.052-.069.337.337 0 00-.128-.084.324.324 0 00-.15-.015.409.409 0 00-.179.069 1.25 1.25 0 00-.202.175l-.658.672-.172-.168 1.204-1.236.023-.008z" fill="#fff"/><path d="M51.757 19.33l.15.153-.173.175a.508.508 0 01.15-.023c.045 0 .09 0 .135.008a.328.328 0 01.12.046.567.567 0 01.104.084c.03.03.052.053.067.084.023.03.038.06.045.099.008.03.023.069.023.099v.1a.2.2 0 01-.023.09c-.015.031-.03.07-.045.1a.559.559 0 01-.09.122 1.28 1.28 0 01-.142.153l-.74.755-.172-.168.733-.748a.71.71 0 00.105-.122c.03-.038.044-.068.06-.099.014-.03.022-.06.03-.084v-.084a.13.13 0 00-.023-.076.416.416 0 00-.052-.069.337.337 0 00-.128-.084.324.324 0 00-.15-.015.409.409 0 00-.179.069 1.25 1.25 0 00-.202.175l-.658.672-.172-.168 1.204-1.236.023-.008zM41.05 14.158l.15.152-.172.176a.418.418 0 01.135-.023.8.8 0 01.135.007.326.326 0 01.12.046.532.532 0 01.104.076c.038.039.06.077.083.115a.33.33 0 01.037.122v.13a.346.346 0 01-.052.137 1.06 1.06 0 01.157-.03h.134a.327.327 0 01.12.045.338.338 0 01.105.077.405.405 0 01.105.152c.022.054.03.115.022.176a.403.403 0 01-.06.19.796.796 0 01-.165.207l-.822.846-.165-.167.756-.779c.044-.045.074-.084.104-.114a.473.473 0 00.06-.092c.015-.03.015-.045.023-.076v-.076c0-.023-.015-.046-.023-.069-.007-.023-.022-.038-.037-.061a.292.292 0 00-.12-.076c-.045-.016-.09-.023-.142-.016a.45.45 0 00-.157.061c-.06.031-.112.084-.18.146l-.695.717-.172-.168.777-.801c.045-.046.09-.1.113-.145.022-.046.045-.084.052-.122v-.107a.214.214 0 00-.06-.092.315.315 0 00-.127-.076.324.324 0 00-.15-.008.463.463 0 00-.18.084 1.483 1.483 0 00-.224.191l-.62.64-.165-.167 1.204-1.236-.007.008z" fill="#fff"/><path d="M41.05 14.158l.15.152-.172.176a.418.418 0 01.135-.023.8.8 0 01.135.007.326.326 0 01.12.046.532.532 0 01.104.076c.038.039.06.077.083.115a.33.33 0 01.037.122v.13a.346.346 0 01-.052.137 1.06 1.06 0 01.157-.03h.134a.327.327 0 01.12.045.338.338 0 01.105.077.405.405 0 01.105.152c.022.054.03.115.022.176a.403.403 0 01-.06.19.796.796 0 01-.165.207l-.822.846-.165-.167.756-.779c.044-.045.074-.084.104-.114a.473.473 0 00.06-.092c.015-.03.015-.045.023-.076v-.076c0-.023-.015-.046-.023-.069-.007-.023-.022-.038-.037-.061a.292.292 0 00-.12-.076c-.045-.016-.09-.023-.142-.016a.45.45 0 00-.157.061c-.06.031-.112.084-.18.146l-.695.717-.172-.168.777-.801c.045-.046.09-.1.113-.145.022-.046.045-.084.052-.122v-.107a.214.214 0 00-.06-.092.315.315 0 00-.127-.076.324.324 0 00-.15-.008.463.463 0 00-.18.084 1.483 1.483 0 00-.224.191l-.62.64-.165-.167 1.204-1.236-.007.008zm.947 2.191a1.43 1.43 0 01.307-.244.767.767 0 01.299-.1.6.6 0 01.636.404c.03.085.037.176.03.275a.757.757 0 01-.09.298 1.74 1.74 0 01-.546.565.831.831 0 01-.3.106.577.577 0 01-.261-.03.622.622 0 01-.225-.153.824.824 0 01-.15-.221.546.546 0 01-.037-.275.85.85 0 01.098-.305c.06-.1.134-.206.239-.313v-.007zm.172.175c-.082.084-.142.16-.187.229a.698.698 0 00-.082.214.487.487 0 00.007.183.296.296 0 00.09.145.311.311 0 00.135.084.356.356 0 00.18 0 .665.665 0 00.209-.084 2.02 2.02 0 00.224-.183.963.963 0 00.18-.23.525.525 0 00.074-.213.487.487 0 00-.007-.183.296.296 0 00-.09-.145.337.337 0 00-.142-.084.355.355 0 00-.18 0 .523.523 0 00-.209.084 1.477 1.477 0 00-.224.183h.022z" fill="#fff"/><path d="M41.997 16.349a1.43 1.43 0 01.307-.244.767.767 0 01.299-.1.6.6 0 01.636.404c.03.085.037.176.03.275a.757.757 0 01-.09.298 1.74 1.74 0 01-.546.565.831.831 0 01-.3.106.577.577 0 01-.261-.03.622.622 0 01-.225-.153.824.824 0 01-.15-.221.546.546 0 01-.037-.275.85.85 0 01.098-.305c.06-.1.134-.206.239-.313v-.007zm.172.175c-.082.084-.142.16-.187.229a.698.698 0 00-.082.214.487.487 0 00.007.183.296.296 0 00.09.145.311.311 0 00.135.084.356.356 0 00.18 0 .665.665 0 00.209-.084 2.02 2.02 0 00.224-.183.963.963 0 00.18-.23.525.525 0 00.074-.213.487.487 0 00-.007-.183.296.296 0 00-.09-.145.337.337 0 00-.142-.084.355.355 0 00-.18 0 .523.523 0 00-.209.084 1.477 1.477 0 00-.224.183h.022zm1.575.373l.15.153-.172.175a.511.511 0 01.15-.023.76.76 0 01.134.008.326.326 0 01.12.046.563.563 0 01.104.084c.03.03.053.053.068.084.022.03.037.06.044.099.008.03.023.069.023.1v.098c0 .03-.008.061-.023.092l-.044.1c-.023.037-.045.075-.09.121-.038.046-.082.1-.142.153l-.741.755-.172-.168.733-.748a.703.703 0 00.105-.122.502.502 0 00.06-.099c.015-.03.022-.06.03-.084v-.084c0-.03-.015-.053-.023-.076-.015-.023-.03-.046-.052-.069a.336.336 0 00-.127-.084.346.346 0 00-.157-.015.353.353 0 00-.172.069c-.06.038-.128.1-.203.175l-.658.672-.172-.168 1.204-1.236.023-.008z" fill="#fff"/><path d="M43.744 16.897l.15.153-.172.175a.511.511 0 01.15-.023.76.76 0 01.134.008.326.326 0 01.12.046.563.563 0 01.104.084c.03.03.053.053.068.084.022.03.037.06.044.099.008.03.023.069.023.1v.098c0 .03-.008.061-.023.092l-.044.1c-.023.037-.045.075-.09.121-.038.046-.082.1-.142.153l-.741.755-.172-.168.733-.748a.703.703 0 00.105-.122.502.502 0 00.06-.099c.015-.03.022-.06.03-.084v-.084c0-.03-.015-.053-.023-.076-.015-.023-.03-.046-.052-.069a.336.336 0 00-.127-.084.346.346 0 00-.157-.015.353.353 0 00-.172.069c-.06.038-.128.1-.203.175l-.658.672-.172-.168 1.204-1.236.023-.008zm1.083 1.093l.165.167-1.205 1.236-.164-.168 1.204-1.236zm.456-.474l.165.168-.232.244-.165-.168.232-.244z" fill="#fff"/><path d="M44.827 17.99l.165.167-1.205 1.236-.164-.168 1.204-1.236zm.456-.474l.165.168-.232.244-.165-.168.232-.244zm-.676 2.348l-.157.206-.075-.053a.464.464 0 01-.06-.054c-.03-.03-.052-.06-.075-.091a.422.422 0 01-.037-.092c0-.03-.007-.053 0-.084 0-.03.015-.053.022-.084a.577.577 0 01.075-.107c.038-.045.083-.099.142-.16l.696-.717-.12-.122.157-.16.12.122.3-.305.291.045-.419.435.172.176-.157.16-.172-.176-.71.725s-.06.061-.083.092c-.022.023-.03.046-.037.053v.061c0 .023.022.038.037.061a.153.153 0 00.038.03c.015.009.03.024.044.04h.008z" fill="#fff"/><path d="M44.607 19.864l-.157.206-.075-.053a.464.464 0 01-.06-.054c-.03-.03-.052-.06-.075-.091a.422.422 0 01-.037-.092c0-.03-.007-.053 0-.084 0-.03.015-.053.022-.084a.577.577 0 01.075-.107c.038-.045.083-.099.142-.16l.696-.717-.12-.122.157-.16.12.122.3-.305.291.045-.419.435.172.176-.157.16-.172-.176-.71.725s-.06.061-.083.092c-.022.023-.03.046-.037.053v.061c0 .023.022.038.037.061a.153.153 0 00.038.03c.015.009.03.024.044.04h.008zm.539-.318a1.43 1.43 0 01.307-.245.69.69 0 01.3-.099.6.6 0 01.494.175.652.652 0 01.141.222c.03.084.037.175.03.275a.757.757 0 01-.09.297 1.744 1.744 0 01-.546.565.71.71 0 01-.3.107.579.579 0 01-.261-.03.622.622 0 01-.224-.153.824.824 0 01-.15-.222.662.662 0 01-.038-.274.85.85 0 01.098-.306c.06-.099.134-.206.24-.313zm.172.175c-.082.084-.142.16-.187.229a.697.697 0 00-.082.214.487.487 0 00.007.183.296.296 0 00.09.145.311.311 0 00.135.084.356.356 0 00.18 0 .523.523 0 00.209-.084 2.02 2.02 0 00.224-.183 1.2 1.2 0 00.18-.23.525.525 0 00.075-.213.487.487 0 00-.008-.183.334.334 0 00-.09-.145.337.337 0 00-.142-.084.355.355 0 00-.18 0 .664.664 0 00-.209.084 1.477 1.477 0 00-.224.183h.022z" fill="#fff"/><path d="M45.146 19.546a1.43 1.43 0 01.307-.245.69.69 0 01.3-.099.6.6 0 01.494.175.652.652 0 01.141.222c.03.084.037.175.03.275a.757.757 0 01-.09.297 1.744 1.744 0 01-.546.565.71.71 0 01-.3.107.579.579 0 01-.261-.03.622.622 0 01-.224-.153.824.824 0 01-.15-.222.662.662 0 01-.038-.274.85.85 0 01.098-.306c.06-.099.134-.206.24-.313zm.172.175c-.082.084-.142.16-.187.229a.697.697 0 00-.082.214.487.487 0 00.007.183.296.296 0 00.09.145.311.311 0 00.135.084.356.356 0 00.18 0 .523.523 0 00.209-.084 2.02 2.02 0 00.224-.183 1.2 1.2 0 00.18-.23.525.525 0 00.075-.213.487.487 0 00-.008-.183.334.334 0 00-.09-.145.337.337 0 00-.142-.084.355.355 0 00-.18 0 .664.664 0 00-.209.084 1.477 1.477 0 00-.224.183h.022zm1.57.366l.15.152-.187.191a.902.902 0 01.164-.046c.045-.007.083-.015.113-.015s.06.008.082.023c.022.015.045.023.067.046.03.03.053.06.067.107a.76.76 0 01.038.137l-.24.137s-.022-.06-.03-.091a.262.262 0 00-.044-.069c-.023-.015-.038-.03-.06-.046-.023-.007-.045-.015-.075-.015h-.082a.275.275 0 00-.082.038.94.94 0 00-.143.1c-.044.037-.09.076-.134.122l-.629.64-.164-.167 1.204-1.237-.015-.007z" fill="#fff"/><path d="M46.888 20.087l.15.152-.187.191a.902.902 0 01.164-.046c.045-.007.083-.015.113-.015s.06.008.082.023c.022.015.045.023.067.046.03.03.053.06.067.107a.76.76 0 01.038.137l-.24.137s-.022-.06-.03-.091a.262.262 0 00-.044-.069c-.023-.015-.038-.03-.06-.046-.023-.007-.045-.015-.075-.015h-.082a.275.275 0 00-.082.038.94.94 0 00-.143.1c-.044.037-.09.076-.134.122l-.629.64-.164-.167 1.204-1.237-.015-.007zm.512 2.189l.15.198a.929.929 0 01-.232.115.552.552 0 01-.217.023.438.438 0 01-.194-.054.705.705 0 01-.18-.137.776.776 0 01-.157-.229.66.66 0 01-.037-.275.772.772 0 01.097-.297c.052-.1.135-.206.232-.305.105-.107.21-.191.314-.252a.79.79 0 01.3-.107.675.675 0 01.276.03c.09.031.157.077.224.145a.491.491 0 01.135.222c.03.084.038.175.023.274a.773.773 0 01-.098.298c-.06.1-.134.206-.24.305l-.051.054-.741-.756a1.129 1.129 0 00-.15.214.43.43 0 00-.06.198c0 .061 0 .122.016.176a.306.306 0 00.082.137c.06.061.134.1.224.1a.57.57 0 00.285-.085v.008zm-.224-.908l.554.565c.045-.054.082-.107.112-.16.03-.054.045-.1.052-.145a.717.717 0 00-.007-.184.337.337 0 00-.21-.229.366.366 0 00-.157-.015c-.06 0-.112.023-.172.046a.796.796 0 00-.172.122z" fill="#fff"/><path d="M47.4 22.276l.15.198a.929.929 0 01-.232.115.552.552 0 01-.217.023.438.438 0 01-.194-.054.705.705 0 01-.18-.137.776.776 0 01-.157-.229.66.66 0 01-.037-.275.772.772 0 01.097-.297c.052-.1.135-.206.232-.305.105-.107.21-.191.314-.252a.79.79 0 01.3-.107.675.675 0 01.276.03c.09.031.157.077.224.145a.491.491 0 01.135.222c.03.084.038.175.023.274a.773.773 0 01-.098.298c-.06.1-.134.206-.24.305l-.051.054-.741-.756a1.129 1.129 0 00-.15.214.43.43 0 00-.06.198c0 .061 0 .122.016.176a.306.306 0 00.082.137c.06.061.134.1.224.1a.57.57 0 00.285-.085v.008zm-.224-.908l.554.565c.045-.054.082-.107.112-.16.03-.054.045-.1.052-.145a.717.717 0 00-.007-.184.337.337 0 00-.21-.229.366.366 0 00-.157-.015c-.06 0-.112.023-.172.046a.796.796 0 00-.172.122zm1.029 2.205a.86.86 0 01-.135.031c-.037 0-.082 0-.12-.008-.037-.015-.074-.023-.104-.045a70.13 70.13 0 00-.09-.07.59.59 0 01-.127-.205c-.023-.076-.03-.168-.023-.267a.79.79 0 01.105-.298 1.37 1.37 0 01.232-.305c.067-.069.135-.13.202-.183a.682.682 0 01.202-.115.638.638 0 01.367-.06.614.614 0 01.157.045c.044.023.09.054.127.1.03.03.052.06.067.09.023.031.03.07.045.115a.591.591 0 01.008.122c0 .039 0 .084-.016.122l.599-.617.165.167-1.661 1.702-.157-.16.15-.153.007-.008zm-.082-1a1.515 1.515 0 00-.188.23.741.741 0 00-.082.206.345.345 0 000 .175c.015.054.038.1.075.13a.315.315 0 00.127.076.3.3 0 00.165 0 .782.782 0 00.194-.076 1.364 1.364 0 00.412-.42.73.73 0 00.09-.213.38.38 0 000-.183.317.317 0 00-.083-.145.211.211 0 00-.127-.07.649.649 0 00-.172 0 .757.757 0 00-.202.092c-.075.046-.15.107-.232.191l.023.008z" fill="#fff"/><path d="M48.205 23.573a.86.86 0 01-.135.031c-.037 0-.082 0-.12-.008-.037-.015-.074-.023-.104-.045a70.13 70.13 0 00-.09-.07.59.59 0 01-.127-.205c-.023-.076-.03-.168-.023-.267a.79.79 0 01.105-.298 1.37 1.37 0 01.232-.305c.067-.069.135-.13.202-.183a.682.682 0 01.202-.115.638.638 0 01.367-.06.614.614 0 01.157.045c.044.023.09.054.127.1.03.03.052.06.067.09.023.031.03.07.045.115a.591.591 0 01.008.122c0 .039 0 .084-.016.122l.599-.617.165.167-1.661 1.702-.157-.16.15-.153.007-.008zm-.082-1a1.515 1.515 0 00-.188.23.741.741 0 00-.082.206.345.345 0 000 .175c.015.054.038.1.075.13a.315.315 0 00.127.076.3.3 0 00.165 0 .782.782 0 00.194-.076 1.364 1.364 0 00.412-.42.73.73 0 00.09-.213.38.38 0 000-.183.317.317 0 00-.083-.145.211.211 0 00-.127-.07.649.649 0 00-.172 0 .757.757 0 00-.202.092c-.075.046-.15.107-.232.191l.023.008zM29.331 52.891l.262.077c-.03.137-.067.259-.12.358a.888.888 0 01-.179.244.627.627 0 01-.232.145.825.825 0 01-.284.046.843.843 0 01-.456-.122.757.757 0 01-.172-.175 1.998 1.998 0 01-.143-.252 2 2 0 01-.09-.32 1.943 1.943 0 01-.03-.375 1.626 1.626 0 01.12-.672c.045-.09.09-.175.142-.243a.69.69 0 01.188-.176.821.821 0 01.456-.145.718.718 0 01.479.176.832.832 0 01.172.22c.045.085.082.192.105.298l-.247.07c-.045-.161-.105-.29-.195-.367a.447.447 0 00-.322-.122.74.74 0 00-.18.023.517.517 0 00-.284.206 1.05 1.05 0 00-.097.183.784.784 0 00-.06.236c-.007.084-.022.191-.022.298 0 .16.015.305.045.427s.067.222.127.305c.06.084.12.145.195.184a.547.547 0 00.448.023.461.461 0 00.165-.115.698.698 0 00.127-.19.86.86 0 00.075-.268l.007.023z" fill="#fff"/><path d="M29.331 52.891l.262.077c-.03.137-.067.259-.12.358a.888.888 0 01-.179.244.627.627 0 01-.232.145.825.825 0 01-.284.046.843.843 0 01-.456-.122.757.757 0 01-.172-.175 1.998 1.998 0 01-.143-.252 2 2 0 01-.09-.32 1.943 1.943 0 01-.03-.375 1.626 1.626 0 01.12-.672c.045-.09.09-.175.142-.243a.69.69 0 01.188-.176.821.821 0 01.456-.145.718.718 0 01.479.176.832.832 0 01.172.22c.045.085.082.192.105.298l-.247.07c-.045-.161-.105-.29-.195-.367a.447.447 0 00-.322-.122.74.74 0 00-.18.023.517.517 0 00-.284.206 1.05 1.05 0 00-.097.183.784.784 0 00-.06.236c-.007.084-.022.191-.022.298 0 .16.015.305.045.427s.067.222.127.305c.06.084.12.145.195.184a.547.547 0 00.448.023.461.461 0 00.165-.115.698.698 0 00.127-.19.86.86 0 00.075-.268l.007.023zm.596-1.557h.255v.984h1.002v-.984h.254v2.396h-.254V52.6h-1.002v1.13h-.255v-2.396z" fill="#fff"/><path d="M29.927 51.334h.255v.984h1.002v-.984h.254v2.396h-.254V52.6h-1.002v1.13h-.255v-2.396zm2.013 0h.254v2.396h-.254v-2.396z" fill="#fff"/><path d="M31.94 51.334h.254v2.396h-.254v-2.396zm.72 0h.262l1.01 1.877v-1.877h.246v2.396h-.261l-1.01-1.877v1.877h-.24v-2.396h-.007z" fill="#fff"/><path d="M32.66 51.334h.262l1.01 1.877v-1.877h.246v2.396h-.261l-1.01-1.877v1.877h-.24v-2.396h-.007zm2.494 0h.277l.785 2.396h-.291l-.225-.725h-.808l-.21.725h-.261l.733-2.396zm.471 1.412l-.202-.664c-.03-.1-.06-.191-.082-.275-.022-.084-.037-.16-.052-.221l-.045.229a2.607 2.607 0 01-.06.229l-.21.702h.651z" fill="#fff"/><path d="M35.154 51.334h.277l.785 2.396h-.291l-.225-.725h-.808l-.21.725h-.261l.733-2.396zm.471 1.412l-.202-.664c-.03-.1-.06-.191-.082-.275-.022-.084-.037-.16-.052-.221l-.045.229a2.607 2.607 0 01-.06.229l-.21.702h.651z" fill="#fff"/><path fill-rule="evenodd" clip-rule="evenodd" d="M66.218 20.751c.008.076.023.199.075.26.03.03.105.076.157.076.053 0 .09-.046.12-.076l.097-.092 2.484-2.327.823-.801.441-.374a.322.322 0 01.225-.077c.18 0 .18.038.18.199v.381c0 .168-.03.168-.158.298l-.404.442-2.708 2.648-.748.725c-.142.13-.644.641-.838.641l-.135-.015c-.082 0-.314-.176-.389-.23a2.15 2.15 0 01-.224-.228c-.045-.053-.052-.153-.052-.214l-.075-.702a4.411 4.411 0 01-.03-.702c.022-.313-.015-.252.187-.488.075-.092.18-.244.3-.282a.97.97 0 01.29-.046.27.27 0 01.18.06c.075.07.083.092.083.184 0 .114.037.313.052.427l.052.313h.015z" fill="#1A171B"/><path fill-rule="evenodd" clip-rule="evenodd" d="M69.305 20.24l-.651.557c.022.145.045.298.045.45 0 1.435-1.145 2.587-2.551 2.587-1.407 0-2.536-1.168-2.536-2.602s1.144-2.587 2.55-2.587c.637 0 1.198.252 1.646.641l.547-.55a3.232 3.232 0 00-2.185-.87c-1.825 0-3.314 1.504-3.321 3.366-.008 1.862 1.466 3.38 3.299 3.388 1.833 0 3.321-1.503 3.321-3.365 0-.359-.067-.694-.164-1.015z" fill="#1A171B"/><path d="M73.57 22.92v-.832h-1.204V21.7l1.272-2.243h.276V21.7h.374v.39h-.374v.831h-.344zm0-1.22v-1.557l-.868 1.556h.868zm1.595-.658a.667.667 0 01-.306-.268.847.847 0 01-.105-.434c0-.26.075-.474.224-.641a.729.729 0 01.569-.245c.224 0 .419.084.576.252.157.168.232.382.232.649a.808.808 0 01-.105.42.667.667 0 01-.307.267c.165.068.3.175.39.328.09.152.134.335.134.564 0 .306-.09.557-.262.756a.818.818 0 01-.65.29.87.87 0 01-.659-.29c-.18-.191-.262-.45-.262-.763 0-.23.045-.42.142-.572a.68.68 0 01.39-.306v-.007zm-.18.877c0 .214.053.382.165.511.113.13.247.191.404.191a.488.488 0 00.397-.19.743.743 0 00.165-.504.765.765 0 00-.173-.511.52.52 0 00-.403-.199.499.499 0 00-.397.19.746.746 0 00-.165.505l.008.007zm.113-1.602c0 .168.045.305.135.404.09.1.194.153.321.153a.42.42 0 00.322-.153c.09-.1.135-.229.135-.381a.605.605 0 00-.135-.397.396.396 0 00-.322-.153.394.394 0 00-.314.153.583.583 0 00-.134.374h-.008zm1.665 1.564v-.427h1.047v.427h-1.047zm1.427 1.039v-2.51h.308v.35a.778.778 0 01.261-.297.636.636 0 01.352-.107.57.57 0 01.36.114.637.637 0 01.209.328c.082-.145.172-.251.276-.328a.56.56 0 01.344-.107c.195 0 .345.07.457.199.112.13.164.35.164.64v1.725h-.336v-1.58c0-.182-.015-.305-.038-.38a.333.333 0 00-.321-.237c-.15 0-.27.06-.36.175-.09.122-.141.305-.141.565v1.457h-.337v-1.633c0-.206-.03-.35-.097-.442a.294.294 0 00-.255-.13.417.417 0 00-.366.19c-.09.13-.135.367-.135.703v1.305h-.344zm3.106-1.253c0-.435.09-.763.269-.977a.851.851 0 01.673-.328.83.83 0 01.673.328c.18.221.27.542.27.954 0 .45-.09.786-.27 1.007a.833.833 0 01-.68.328.82.82 0 01-.674-.328c-.18-.221-.269-.55-.269-.977l.008-.007zm.351 0c0 .328.06.564.172.724.112.16.262.237.434.237.157 0 .3-.076.412-.236.112-.16.172-.397.172-.725 0-.329-.06-.565-.172-.725a.512.512 0 00-.434-.237c-.165 0-.3.077-.412.237-.112.16-.172.396-.172.717v.008zm1.938 1.253v-2.51h.306v.35a.767.767 0 01.27-.305.662.662 0 01.366-.1.727.727 0 01.524.237c.06.069.097.16.127.275.03.114.045.282.045.511v1.542h-.337v-1.527c0-.183-.015-.32-.045-.404a.435.435 0 00-.142-.198.39.39 0 00-.224-.069.456.456 0 00-.39.19c-.097.13-.141.337-.141.642v1.373h-.337l-.022-.007zm2.918-.382l.045.374c-.097.023-.18.038-.254.038a.507.507 0 01-.284-.069.36.36 0 01-.15-.198c-.03-.084-.037-.252-.037-.496v-1.442h-.247v-.328h.247v-.618l.344-.252v.877h.344v.329h-.344v1.465c0 .137.007.22.03.259.03.053.082.084.164.084.038 0 .09 0 .15-.015l-.008-.008zm.323.381v-3.465h.336v1.244a.963.963 0 01.27-.26.616.616 0 01.336-.083c.217 0 .382.069.509.206.127.137.187.397.187.763v1.587h-.337v-1.587c0-.221-.037-.374-.112-.466a.389.389 0 00-.314-.145.485.485 0 00-.382.184c-.104.122-.157.335-.157.64v1.374h-.336v.008zm3.342 0v-2.175h-.307v-.328h.307v-.267c0-.198.022-.343.06-.442a.42.42 0 01.186-.222.567.567 0 01.315-.076c.097 0 .202.015.321.046l-.052.366a.914.914 0 00-.202-.023c-.105 0-.172.03-.217.084-.045.053-.067.16-.067.313v.229h.396v.328h-.396v2.175h-.344v-.008zm.974 0v-3.465h.344v3.465h-.344zm2.194 0v-.366a.973.973 0 01-.276.32.643.643 0 01-.36.107.658.658 0 01-.404-.13.618.618 0 01-.224-.328 2.057 2.057 0 01-.06-.55v-1.556h.337v1.389c0 .26.015.435.037.519.023.084.075.16.142.213.068.054.15.077.232.077.165 0 .3-.07.404-.206.09-.115.135-.336.135-.649v-1.343h.344v2.51h-.307v-.007zm2.22-.809l.351.054c-.06.267-.164.473-.321.603a.868.868 0 01-.569.206.851.851 0 01-.696-.328c-.18-.221-.261-.542-.261-.954 0-.412.09-.763.269-.992.18-.229.404-.343.673-.343.27 0 .479.114.651.335.172.222.262.55.262.97v.114H94.41c.015.282.075.496.195.641a.51.51 0 00.419.214c.254 0 .433-.168.53-.512v-.007zm-1.122-.686h1.122c-.015-.221-.06-.381-.135-.488-.112-.153-.247-.237-.419-.237a.471.471 0 00-.389.198c-.105.13-.164.306-.18.527zm1.906 1.496v-2.51h.307v.35a.766.766 0 01.269-.305.662.662 0 01.366-.1.729.729 0 01.524.237c.06.069.097.16.127.275.03.114.045.282.045.511v1.542h-.344v-1.527c0-.183-.015-.32-.045-.404a.435.435 0 00-.142-.198.374.374 0 00-.224-.069.456.456 0 00-.39.19c-.097.13-.149.337-.149.642v1.373h-.344v-.007zm3.482-.916l.337.053c-.038.298-.135.527-.292.687a.755.755 0 01-.56.237.789.789 0 01-.652-.328c-.172-.222-.254-.55-.254-.985 0-.435.09-.763.254-.984a.806.806 0 01.666-.328c.21 0 .382.068.524.198.142.13.232.328.276.595l-.329.061a.718.718 0 00-.172-.381.399.399 0 00-.291-.13c-.172 0-.307.076-.42.23-.112.152-.164.396-.164.724 0 .328.052.588.157.74.105.153.24.229.404.229.127 0 .24-.053.33-.153.089-.099.149-.259.171-.473l.015.008zm.613 1.884l-.037-.397a.719.719 0 00.194.038.316.316 0 00.18-.046.358.358 0 00.12-.137l.134-.42-.763-2.51h.367l.419 1.45c.052.183.097.374.142.58.037-.199.082-.382.142-.573l.434-1.457h.344l-.763 2.549a4.27 4.27 0 01-.239.663.64.64 0 01-.195.237.471.471 0 01-.247.076.5.5 0 01-.217-.053h-.015zm3.037-.968v-2.51h.306v.38c.075-.175.15-.29.217-.35a.312.312 0 01.217-.084.59.59 0 01.352.137l-.12.397a.414.414 0 00-.247-.092.292.292 0 00-.202.077.399.399 0 00-.127.22 1.94 1.94 0 00-.067.52v1.312h-.344l.015-.007zm2.601-.306a1.19 1.19 0 01-.359.275.872.872 0 01-.381.091c-.21 0-.374-.06-.501-.19-.128-.13-.187-.306-.187-.52 0-.144.029-.274.089-.38a.716.716 0 01.24-.26c.104-.061.254-.107.464-.138.276-.038.478-.091.613-.145v-.107c0-.167-.03-.29-.09-.358-.082-.1-.217-.153-.389-.153-.157 0-.277.03-.359.1-.082.068-.135.19-.172.381l-.337-.053c.045-.267.143-.466.292-.588.142-.122.352-.183.629-.183.209 0 .374.038.501.122a.532.532 0 01.224.298c.03.122.045.297.045.526v.565c0 .397 0 .648.023.748.022.099.044.206.089.297h-.359a.916.916 0 01-.067-.313l-.008-.015zm-.03-.946a2.346 2.346 0 01-.561.16.99.99 0 00-.299.084.297.297 0 00-.135.137.474.474 0 00-.044.206c0 .123.037.214.112.29.075.077.172.107.299.107s.232-.03.329-.099a.634.634 0 00.225-.26c.052-.106.074-.267.074-.473v-.152zm1.639.87l.044.374a1.133 1.133 0 01-.254.038.505.505 0 01-.284-.069.36.36 0 01-.15-.198c-.03-.084-.037-.252-.037-.496v-1.442h-.247v-.328h.247v-.618l.336-.252v.877h.345v.329h-.345v1.465c0 .137.008.22.03.259.03.053.083.084.165.084.037 0 .09 0 .15-.015v-.008zm.322-2.588v-.488h.344v.489h-.344zm0 2.977v-2.51h.344v2.51h-.344zm.866-.007v-2.51h.307v.35a.766.766 0 01.269-.305.663.663 0 01.367-.1.714.714 0 01.523.237c.06.069.098.16.128.275.029.114.044.282.044.511v1.542h-.344v-1.527c0-.183-.015-.32-.045-.404a.427.427 0 00-.142-.198.373.373 0 00-.224-.069.455.455 0 00-.389.19c-.097.13-.15.337-.15.642v1.373h-.344v-.007zm2.098.206l.337.06c.014.138.059.237.142.298.074.069.187.1.321.1.15 0 .27-.039.359-.107a.56.56 0 00.18-.329c.022-.091.03-.274.03-.556a.835.835 0 01-.247.244.597.597 0 01-.307.084.73.73 0 01-.598-.313c-.18-.237-.269-.557-.269-.962 0-.267.037-.503.119-.702.083-.198.187-.35.314-.442a.75.75 0 01.442-.145c.119 0 .224.03.321.091a.789.789 0 01.262.267v-.297h.315v2.167c0 .381-.03.664-.09.824a.754.754 0 01-.307.39.911.911 0 01-.509.144c-.262 0-.464-.069-.598-.213a.805.805 0 01-.202-.596l-.015-.007zm.284-1.504c0 .329.053.573.157.725.105.153.24.23.389.23.15 0 .285-.077.397-.222.112-.145.164-.382.164-.71 0-.328-.052-.55-.164-.702-.112-.152-.247-.229-.404-.229-.142 0-.27.077-.374.23-.105.152-.165.38-.165.686v-.008z" fill="#1A171B" stroke="#1A171B" stroke-width=".103" stroke-miterlimit="10"/><path fill-rule="evenodd" clip-rule="evenodd" d="M105.687 29.266l-1.691 2.434-1.72-2.434h3.411zm-36.836 2.518h39.058l2.79 2.816-2.79 2.846H68.851v-5.662z" fill="#1C8D42"/><path d="M68.85 31.998l.225-.229v5.67l-.225-.23h39.073l-.157.07 2.775-2.832v.32l-2.775-2.83.157.069H68.85m39.073-.458h.045l.045.015.037.023.037.03 2.776 2.831.03.039.022.038.015.045v.092l-.015.046-.022.038-.03.038-2.776 2.831-.037.03-.037.023-.045.016H68.805l-.045-.016-.037-.022-.037-.03-.03-.039-.023-.038-.015-.046v-5.761l.015-.046.023-.038.03-.038.037-.03.037-.024.045-.015h39.118v.008z" fill="#fff"/><path fill-rule="evenodd" clip-rule="evenodd" d="M68.851 31.723h30.986l2.813 2.877-2.813 2.87H68.851v-5.747z" fill="#96B927"/><path d="M68.85 31.96l.225-.229v5.746l-.225-.229h30.986l-.157.069 2.82-2.877v.32l-2.82-2.876.157.069H68.85m30.986-.458h.045l.045.015.037.023.038.03 2.82 2.877.03.038.022.038.015.046v.092l-.015.045-.022.039-.03.038-2.82 2.877-.038.03-.037.023-.045.015H68.805l-.045-.015-.037-.023-.037-.03-.03-.039-.023-.038-.015-.046v-5.837l.015-.046.023-.038.03-.038.037-.03.037-.023.045-.016h31.031v-.007z" fill="#fff"/><path fill-rule="evenodd" clip-rule="evenodd" d="M68.851 31.723h22.936l2.82 2.877-2.82 2.87H68.851v-5.747z" fill="#EFC425"/><path d="M68.85 31.96l.225-.229v5.746l-.225-.229h22.937l-.158.069 2.82-2.877v.32l-2.82-2.876.157.069H68.85m22.937-.458h.044l.045.015.038.023.037.03 2.82 2.877.03.038.023.038.015.046v.092l-.015.045-.023.039-.03.038-2.82 2.877-.037.03-.038.023-.045.015H68.805l-.045-.015-.037-.023-.037-.03-.03-.039-.023-.038-.015-.046v-5.837l.015-.046.023-.038.03-.038.037-.03.037-.023.045-.016h22.982v-.007z" fill="#fff"/><path fill-rule="evenodd" clip-rule="evenodd" d="M68.851 31.723h14.887l2.82 2.877-2.82 2.87H68.851v-5.747z" fill="#E2712D"/><path d="M68.85 31.96l.225-.229v5.746l-.225-.229h14.887l-.157.069 2.82-2.877v.32l-2.82-2.876.157.069H68.85m14.887-.458h.045l.045.015.037.023.038.03 2.82 2.877.03.038.022.038.015.046v.092l-.015.045-.022.039-.03.038-2.82 2.877-.038.03-.037.023-.045.015H68.805l-.045-.015-.037-.023-.037-.03-.03-.039-.023-.038-.015-.046v-5.837l.015-.046.023-.038.03-.038.037-.03.037-.023.045-.016h14.932v-.007z" fill="#fff"/><path fill-rule="evenodd" clip-rule="evenodd" d="M68.851 31.723h6.838l2.82 2.877-2.82 2.87H68.85v-5.747z" fill="#CB2129"/><path d="M68.85 31.96l.225-.229v5.746l-.225-.229h6.838l-.157.069 2.82-2.877v.32l-2.82-2.876.157.069H68.85m6.838-.458h.044l.045.015.038.023.037.03 2.82 2.877.03.038.023.038.015.046v.092l-.015.045-.023.039-.03.038-2.82 2.877-.037.03-.038.023-.044.015h-6.928l-.045-.015-.037-.023-.037-.03-.03-.039-.023-.038-.015-.046v-5.837l.015-.046.023-.038.03-.038.037-.03.037-.023.045-.016h6.883v-.007z" fill="#fff"/><path d="M71.84 36.034v-2.938h1.751v.496h-1.279v.648h1.19v.496h-1.19v.802h1.324v.496h-1.795zm8.613-2.938h.867c.217 0 .39.023.502.076a.865.865 0 01.306.252 1.4 1.4 0 01.225.465c.052.191.082.428.082.71 0 .252-.03.473-.082.664a1.27 1.27 0 01-.217.443.822.822 0 01-.314.244c-.12.053-.277.084-.472.084h-.897v-2.938zm.478.496v1.946h.36a.94.94 0 00.336-.046.492.492 0 00.172-.13.775.775 0 00.112-.282c.03-.13.045-.298.045-.504 0-.206-.015-.389-.045-.511a.776.776 0 00-.134-.298.446.446 0 00-.225-.145 2.108 2.108 0 00-.389-.023h-.217l-.015-.007zm8.918 1.358l.464.183c-.075.328-.195.572-.36.717a.882.882 0 01-.62.23.901.901 0 01-.748-.367c-.217-.282-.33-.656-.33-1.13 0-.503.113-.892.33-1.175a.938.938 0 01.778-.366.9.9 0 01.665.275c.127.13.217.328.277.58l-.471.137a.648.648 0 00-.18-.366.45.45 0 00-.314-.13.51.51 0 00-.426.23c-.112.152-.165.411-.165.77 0 .359.053.633.165.786a.496.496 0 00.419.236.447.447 0 00.329-.152c.09-.1.157-.26.202-.473l-.015.015zm6.367-1.854h.943c.262 0 .441.023.546.069.105.046.195.13.262.252.075.122.105.26.105.412 0 .145-.03.267-.09.381a.594.594 0 01-.24.252.66.66 0 01.33.26.79.79 0 01.12.45.959.959 0 01-.15.541.628.628 0 01-.36.275c-.097.023-.314.038-.665.038h-.8v-2.938.008zm.48.489v.679h.313c.187 0 .307 0 .352-.008a.276.276 0 00.187-.107.36.36 0 00.067-.229.376.376 0 00-.052-.213c-.038-.054-.082-.092-.135-.1-.052-.015-.202-.023-.456-.023h-.277zm0 1.167v.786h.44c.195 0 .322-.008.374-.03a.309.309 0 00.143-.123.432.432 0 00.06-.229.46.46 0 00-.06-.236.294.294 0 00-.157-.13 1.463 1.463 0 00-.404-.038h-.397zm9.407 1.282h-.516l-.209-.664h-.943l-.194.664h-.509l.92-2.938h.509l.95 2.938h-.008zm-.875-1.16l-.329-1.091-.322 1.09h.651z" fill="#fff"/></g><defs><linearGradient id="paint0_linear_282_10494" x1=".992" y1="18.689" x2="19.203" y2=".844" gradientUnits="userSpaceOnUse"><stop stop-color="#ECEDED"/><stop offset=".2" stop-color="#ECEDED"/><stop offset=".24" stop-color="#E7E8E8"/><stop offset=".27" stop-color="#DBDCDC"/><stop offset=".31" stop-color="#C7C8C8"/><stop offset=".34" stop-color="#AEB0AF"/><stop offset=".58" stop-color="#D9DADB"/><stop offset=".77" stop-color="#D7D8D8"/><stop offset=".86" stop-color="#D0D1D1"/><stop offset=".92" stop-color="#C3C5C5"/><stop offset=".97" stop-color="#B2B4B3"/><stop offset=".98" stop-color="#AEB0AF"/></linearGradient><linearGradient id="paint1_linear_282_10494" x1="1.03" y1="45.22" x2="18.958" y2="62.797" gradientUnits="userSpaceOnUse"><stop stop-color="#fff"/><stop offset=".11" stop-color="#FCFCFC"/><stop offset=".17" stop-color="#F4F4F4"/><stop offset=".22" stop-color="#E6E6E6"/><stop offset=".27" stop-color="#D3D3D2"/><stop offset=".31" stop-color="#B9BAB8"/><stop offset=".34" stop-color="#9A9B99"/><stop offset=".38" stop-color="#767674"/><stop offset=".41" stop-color="#4D4E4B"/><stop offset=".44" stop-color="#525250"/><stop offset=".48" stop-color="#62605E"/><stop offset=".53" stop-color="#7C7677"/><stop offset=".57" stop-color="#A09499"/><stop offset=".59" stop-color="#AEA0A6"/><stop offset=".72" stop-color="#AEB0AF"/><stop offset=".96" stop-color="#AFB1B0"/></linearGradient><linearGradient id="paint2_linear_282_10494" x1="118.335" y1=".567" x2="118.335" y2="63.198" gradientUnits="userSpaceOnUse"><stop stop-color="#9CA09F"/><stop offset=".16" stop-color="#B2B6B6"/><stop offset=".3" stop-color="#C0C4C4"/><stop offset=".43" stop-color="#C5C9C9"/><stop offset=".63" stop-color="#C2C5C6"/><stop offset="1" stop-color="#9CA09F"/></linearGradient><linearGradient id="paint3_linear_282_10494" x1=".835" y1="19.049" x2=".835" y2="31.258" gradientUnits="userSpaceOnUse"><stop stop-color="#D9DADB"/><stop offset=".12" stop-color="#EAEBEB"/><stop offset=".26" stop-color="#F6F6F6"/><stop offset=".45" stop-color="#FDFDFD"/><stop offset="1" stop-color="#fff"/></linearGradient><linearGradient id="paint4_linear_282_10494" x1="18.852" y1=".346" x2="118.662" y2=".346" gradientUnits="userSpaceOnUse"><stop stop-color="#9CA09F"/><stop offset=".04" stop-color="#969A99"/><stop offset=".09" stop-color="#868988"/><stop offset=".15" stop-color="#6C6E6C"/><stop offset=".2" stop-color="#4D4E4B"/><stop offset=".23" stop-color="#5B5C5A"/><stop offset=".28" stop-color="#757674"/><stop offset=".34" stop-color="#8A8C8A"/><stop offset=".42" stop-color="#9B9C9B"/><stop offset=".51" stop-color="#A6A8A7"/><stop offset=".64" stop-color="#ADAFAE"/><stop offset="1" stop-color="#AFB1B0"/></linearGradient><linearGradient id="paint5_linear_282_10494" x1="18.777" y1="63.535" x2="118.662" y2="63.535" gradientUnits="userSpaceOnUse"><stop stop-color="#AFB1B0"/><stop offset=".36" stop-color="#ADAFAE"/><stop offset=".49" stop-color="#A6A8A7"/><stop offset=".58" stop-color="#9B9C9B"/><stop offset=".66" stop-color="#8A8C8A"/><stop offset=".72" stop-color="#757674"/><stop offset=".77" stop-color="#5B5C5A"/><stop offset=".8" stop-color="#4D4E4B"/><stop offset=".81" stop-color="#585956"/><stop offset=".84" stop-color="#707370"/><stop offset=".86" stop-color="#838785"/><stop offset=".9" stop-color="#919593"/><stop offset=".94" stop-color="#999D9C"/><stop offset="1" stop-color="#9CA09F"/></linearGradient><linearGradient id="paint9_linear_282_10494" x1="16.411" y1="25.481" x2="16.411" y2="38.293" gradientUnits="userSpaceOnUse"><stop stop-color="#BDC6CF"/><stop offset=".06" stop-color="#D4D9DF"/><stop offset=".13" stop-color="#E7EAED"/><stop offset=".21" stop-color="#F4F6F7"/><stop offset=".31" stop-color="#FCFCFD"/><stop offset=".49" stop-color="#fff"/><stop offset=".72" stop-color="#FCFDFE"/><stop offset=".84" stop-color="#F5FAFB"/><stop offset=".93" stop-color="#E7F3F7"/><stop offset=".97" stop-color="#DEEFF5"/></linearGradient><linearGradient id="paint10_linear_282_10494" x1="42.348" y1="6.841" x2="56.668" y2="20.88" gradientUnits="userSpaceOnUse"><stop stop-color="#8F979D"/><stop offset=".08" stop-color="#89959D"/><stop offset=".17" stop-color="#7B909D"/><stop offset=".2" stop-color="#758E9D"/><stop offset=".23" stop-color="#82949E"/><stop offset=".26" stop-color="#8E9A9F"/><stop offset=".3" stop-color="#929CA0"/><stop offset=".32" stop-color="#8F9A9F"/><stop offset=".34" stop-color="#85959E"/><stop offset=".36" stop-color="#758D9C"/><stop offset=".38" stop-color="#557D99"/><stop offset=".54" stop-color="#567C96"/><stop offset=".61" stop-color="#5B7C8F"/><stop offset=".66" stop-color="#657A83"/><stop offset=".68" stop-color="#6B7A7C"/><stop offset=".79" stop-color="#67797D"/><stop offset=".88" stop-color="#5C7982"/><stop offset=".97" stop-color="#4D7889"/></linearGradient><linearGradient id="paint11_linear_282_10494" x1="7.284" y1="21.361" x2="21.848" y2="7.083" gradientUnits="userSpaceOnUse"><stop stop-color="#EBF6FC"/><stop offset=".2" stop-color="#F1F1F3"/><stop offset=".23" stop-color="#ECEDEF"/><stop offset=".25" stop-color="#E0E3E6"/><stop offset=".28" stop-color="#CCD1D6"/><stop offset=".3" stop-color="#AFB9BF"/><stop offset=".33" stop-color="#8A9BA3"/><stop offset=".34" stop-color="#7F919A"/><stop offset=".58" stop-color="#D9DAD9"/><stop offset=".75" stop-color="#D6D8D7"/><stop offset=".82" stop-color="#CFD2D3"/><stop offset=".87" stop-color="#C3C9CB"/><stop offset=".91" stop-color="#B1BBC0"/><stop offset=".95" stop-color="#9AAAB2"/><stop offset=".98" stop-color="#879BA6"/></linearGradient><linearGradient id="paint12_linear_282_10494" x1="38.473" y1="16.242" x2="47.452" y2="25.037" gradientUnits="userSpaceOnUse"><stop stop-color="#9C9F9E"/><stop offset=".41" stop-color="#9A9D9C"/><stop offset=".57" stop-color="#939798"/><stop offset=".68" stop-color="#868E91"/><stop offset=".75" stop-color="#7B858A"/><stop offset="1" stop-color="#546973"/></linearGradient><linearGradient id="paint13_linear_282_10494" x1="16.591" y1="25.223" x2="25.235" y2="16.741" gradientUnits="userSpaceOnUse"><stop offset=".02" stop-color="#BDC6CF"/><stop offset=".05" stop-color="#BFC9D5"/><stop offset=".11" stop-color="#C3CDDC"/><stop offset=".24" stop-color="#C4CFDF"/><stop offset=".29" stop-color="#C0CDDD"/><stop offset=".33" stop-color="#B7C6D9"/><stop offset=".37" stop-color="#A6BCD1"/><stop offset=".41" stop-color="#8FADC6"/><stop offset=".44" stop-color="#729AB9"/><stop offset=".52" stop-color="#819FB7"/><stop offset=".61" stop-color="#8BA2B6"/><stop offset=".72" stop-color="#8FA4B6"/><stop offset=".79" stop-color="#8CA1B2"/><stop offset=".84" stop-color="#8598A7"/><stop offset=".9" stop-color="#798994"/><stop offset=".95" stop-color="#68747A"/><stop offset=".98" stop-color="#5E6769"/></linearGradient><linearGradient id="paint14_linear_282_10494" x1="38.264" y1="43.23" x2="47.719" y2="43.23" gradientUnits="userSpaceOnUse"><stop stop-color="#2E5C6D"/><stop offset=".07" stop-color="#4F707B"/><stop offset=".15" stop-color="#75878C"/><stop offset=".23" stop-color="#8C9597"/><stop offset=".27" stop-color="#959B9B"/><stop offset="1" stop-color="#9CA09F"/></linearGradient><linearGradient id="paint15_linear_282_10494" x1="16.157" y1="43.23" x2="25.613" y2="43.23" gradientUnits="userSpaceOnUse"><stop stop-color="#DEEFF5"/><stop offset=".16" stop-color="#DCEDF4"/><stop offset=".22" stop-color="#D5E9F2"/><stop offset=".26" stop-color="#C9E1EF"/><stop offset=".29" stop-color="#B8D5EB"/><stop offset=".32" stop-color="#A2C6E5"/><stop offset=".33" stop-color="#99C0E3"/><stop offset=".36" stop-color="#88AFCE"/><stop offset=".41" stop-color="#779DB8"/><stop offset=".45" stop-color="#6C92AA"/><stop offset=".49" stop-color="#698FA6"/><stop offset=".51" stop-color="#6F93A8"/><stop offset=".57" stop-color="#91A9B7"/><stop offset=".64" stop-color="#AAB9C1"/><stop offset=".7" stop-color="#B8C2C7"/><stop offset=".75" stop-color="#BEC6CA"/><stop offset=".96" stop-color="#B6BBBC"/></linearGradient><linearGradient id="paint16_linear_282_10494" x1="7.314" y1="42.582" x2="21.649" y2="56.644" gradientUnits="userSpaceOnUse"><stop stop-color="#fff"/><stop offset=".11" stop-color="#FCFDFD"/><stop offset=".18" stop-color="#F4F6F8"/><stop offset=".23" stop-color="#E6EBEE"/><stop offset=".28" stop-color="#D2DCE1"/><stop offset=".32" stop-color="#B8C8D0"/><stop offset=".36" stop-color="#99AFBC"/><stop offset=".4" stop-color="#7492A3"/><stop offset=".41" stop-color="#648699"/><stop offset=".47" stop-color="#698A9E"/><stop offset=".54" stop-color="#7998AD"/><stop offset=".59" stop-color="#87A4BA"/><stop offset=".72" stop-color="#8DAAC1"/><stop offset=".74" stop-color="#92ABBE"/><stop offset=".8" stop-color="#A2AEB6"/><stop offset=".86" stop-color="#ACB0B1"/><stop offset=".96" stop-color="#AFB1B0"/></linearGradient><linearGradient id="paint17_linear_282_10494" x1="47.72" y1="31.968" x2="56.457" y2="31.968" gradientUnits="userSpaceOnUse"><stop stop-color="#969A98"/><stop offset=".05" stop-color="#A1A5A4"/><stop offset=".18" stop-color="#BABFBF"/><stop offset=".32" stop-color="#CCD2D3"/><stop offset=".45" stop-color="#D7DDDF"/><stop offset=".59" stop-color="#DBE1E3"/><stop offset=".76" stop-color="#D6DCDF"/><stop offset=".96" stop-color="#C8CDD6"/><stop offset="1" stop-color="#C5CAD4"/></linearGradient><linearGradient id="paint18_linear_282_10494" x1="21.566" y1="6.688" x2="42.303" y2="6.688" gradientUnits="userSpaceOnUse"><stop stop-color="#879BA6"/><stop offset=".04" stop-color="#8195A0"/><stop offset=".1" stop-color="#708590"/><stop offset=".16" stop-color="#546B75"/><stop offset=".17" stop-color="#4C646E"/><stop offset=".2" stop-color="#556B75"/><stop offset=".27" stop-color="#6B7C84"/><stop offset=".35" stop-color="#7C8990"/><stop offset=".46" stop-color="#889398"/><stop offset=".6" stop-color="#8F989D"/><stop offset="1" stop-color="#919A9F"/></linearGradient><linearGradient id="paint19_linear_282_10494" x1="25.404" y1="16.127" x2="38.473" y2="16.127" gradientUnits="userSpaceOnUse"><stop stop-color="#5E6769"/><stop offset=".1" stop-color="#868C8D"/><stop offset=".2" stop-color="#A6AAAA"/><stop offset=".25" stop-color="#A3A6A6"/><stop offset=".45" stop-color="#9DA09F"/><stop offset="1" stop-color="#9C9F9E"/></linearGradient><linearGradient id="paint20_linear_282_10494" x1="11.525" y1="21.644" x2="11.525" y2="31.419" gradientUnits="userSpaceOnUse"><stop stop-color="#EBF6FC"/><stop offset=".15" stop-color="#F6FBFD"/><stop offset=".38" stop-color="#FDFEFE"/><stop offset="1" stop-color="#fff"/></linearGradient><linearGradient id="paint21_linear_282_10494" x1="21.566" y1="57.233" x2="42.303" y2="57.233" gradientUnits="userSpaceOnUse"><stop stop-color="#AFB1B0"/><stop offset=".35" stop-color="#ADAFAE"/><stop offset=".48" stop-color="#A6ABAB"/><stop offset=".57" stop-color="#9AA3A4"/><stop offset=".64" stop-color="#89979B"/><stop offset=".71" stop-color="#73888F"/><stop offset=".76" stop-color="#587580"/><stop offset=".81" stop-color="#38606F"/><stop offset=".82" stop-color="#335C6C"/><stop offset=".84" stop-color="#53717B"/><stop offset=".86" stop-color="#6D8288"/><stop offset=".89" stop-color="#828F92"/><stop offset=".91" stop-color="#909899"/><stop offset=".95" stop-color="#999E9D"/><stop offset="1" stop-color="#9CA09F"/></linearGradient><linearGradient id="paint22_linear_282_10494" x1="56.722" y1="21.56" x2="56.722" y2="42.315" gradientUnits="userSpaceOnUse"><stop stop-color="#517B8B"/><stop offset=".1" stop-color="#7A96A1"/><stop offset=".19" stop-color="#9BACB2"/><stop offset=".28" stop-color="#B2BCBF"/><stop offset=".36" stop-color="#C0C5C6"/><stop offset=".43" stop-color="#C5C9C9"/><stop offset=".63" stop-color="#C2C5C6"/><stop offset="1" stop-color="#9CA09F"/></linearGradient><linearGradient id="paint23_linear_282_10494" x1="47.462" y1="25.581" x2="47.462" y2="38.194" gradientUnits="userSpaceOnUse"><stop stop-color="#546973"/><stop offset=".01" stop-color="#576B74"/><stop offset=".12" stop-color="#727F84"/><stop offset=".24" stop-color="#868E8F"/><stop offset=".35" stop-color="#929795"/><stop offset=".47" stop-color="#969A98"/><stop offset=".85" stop-color="#989C9B"/><stop offset="1" stop-color="#9CA09F"/></linearGradient><linearGradient id="paint24_linear_282_10494" x1="25.404" y1="47.794" x2="38.473" y2="47.794" gradientUnits="userSpaceOnUse"><stop stop-color="#B6BBBC"/><stop offset=".43" stop-color="#B4B9BA"/><stop offset=".58" stop-color="#ADB3B6"/><stop offset=".69" stop-color="#A1AAAE"/><stop offset=".78" stop-color="#909CA3"/><stop offset=".82" stop-color="#86949D"/><stop offset=".98" stop-color="#2E5C6D"/></linearGradient><radialGradient id="paint6_radial_282_10494" cx="0" cy="0" r="1" gradientUnits="userSpaceOnUse" gradientTransform="matrix(24.7248 0 0 25.2193 21.994 31.9)"><stop stop-color="#fff"/><stop offset=".25" stop-color="#FAFAFA"/><stop offset=".5" stop-color="#EEE"/><stop offset=".75" stop-color="#DADADA"/><stop offset="1" stop-color="#BFBFBF"/></radialGradient><radialGradient id="paint7_radial_282_10494" cx="0" cy="0" r="1" gradientUnits="userSpaceOnUse" gradientTransform="matrix(30.9278 0 0 31.5463 11.858 31.805)"><stop stop-color="#45C0EB"/><stop offset=".07" stop-color="#3EB6E4"/><stop offset=".19" stop-color="#2B9DD3"/><stop offset=".34" stop-color="#0E75B7"/><stop offset=".4" stop-color="#0062AA"/><stop offset="1" stop-color="#003E7D"/></radialGradient><radialGradient id="paint8_radial_282_10494" cx="0" cy="0" r="1" gradientUnits="userSpaceOnUse" gradientTransform="matrix(26.5379 0 0 27.0687 60.134 31.9)"><stop stop-color="#45C0EB"/><stop offset=".06" stop-color="#35A5D5"/><stop offset=".15" stop-color="#2284BB"/><stop offset=".24" stop-color="#136AA6"/><stop offset=".33" stop-color="#085797"/><stop offset=".43" stop-color="#024C8E"/><stop offset=".53" stop-color="#00498C"/><stop offset="1" stop-color="#003E7D"/></radialGradient><clipPath id="clip0_282_10494"><path fill="#fff" d="M0 0h119.216v64H0z"/></clipPath><filter id="filter0_d_282_10494" x=".657" y=".168" width="66.461" height="67.478" filterUnits="userSpaceOnUse" color-interpolation-filters="sRGB"><feFlood flood-opacity="0" result="BackgroundImageFix"/><feColorMatrix in="SourceAlpha" values="0 0 0 0 0 0 0 0 0 0 0 0 0 0 0 0 0 0 127 0" result="hardAlpha"/><feOffset dx="1.947" dy="1.947"/><feGaussianBlur stdDeviation="3.894"/><feColorMatrix values="0 0 0 0 0.101961 0 0 0 0 0.0901961 0 0 0 0 0.105882 0 0 0 0.75 0"/><feBlend in2="BackgroundImageFix" result="effect1_dropShadow_282_10494"/><feBlend in="SourceGraphic" in2="effect1_dropShadow_282_10494" result="shape"/></filter></defs></svg>