<svg width="24" height="24" viewBox="0 0 24 24" fill="none" xmlns="http://www.w3.org/2000/svg"><path fill-rule="evenodd" clip-rule="evenodd" d="M4.568 8.36a2.7 2.7 0 012.676-2.338h9.516a2.7 2.7 0 012.676 2.34l1.143 8.482a1 1 0 01-.99 1.134h-1.706a.7.7 0 01-.632-.399l-.62-1.298a2.3 2.3 0 00-2.075-1.309H9.56a2.3 2.3 0 00-2.049 1.255l-.698 1.369a.7.7 0 01-.623.382H4.412a1 1 0 01-.991-1.134L4.568 8.36zm2.676-3.938a4.3 4.3 0 00-4.261 3.724l-1.148 8.483a2.6 2.6 0 002.577 2.949h1.779a2.3 2.3 0 002.049-1.255l.698-1.369a.7.7 0 01.623-.382h4.995a.7.7 0 01.632.399l.62 1.297a2.3 2.3 0 002.074 1.31h1.706a2.6 2.6 0 002.577-2.947l-1.143-8.483a4.3 4.3 0 00-4.262-3.726H7.244zm7.302 6.574a.96.96 0 111.92 0 .96.96 0 01-1.92 0zm.96-2.56a2.56 2.56 0 100 5.12 2.56 2.56 0 000-5.12zm-7.798 3.36h-1.7v-1.6h1.7v-1.7h1.6v1.7h1.7v1.6h-1.7v1.7h-1.6v-1.7z" fill="#000"/></svg>