<svg width="24" height="24" viewBox="0 0 24 24" fill="none" xmlns="http://www.w3.org/2000/svg"><path fill-rule="evenodd" clip-rule="evenodd" d="M3.25 5.8a.075.075 0 00-.075.075v8.75a.075.075 0 00.075.075h.875v1.6H3.25a1.675 1.675 0 01-1.675-1.675v-8.75A1.675 1.675 0 013.25 4.2h10.5a1.675 1.675 0 011.675 1.675v.875h-1.6v-.875a.075.075 0 00-.075-.075H3.25zm3.5 3.5a.075.075 0 00-.075.075v8.75c0 .042.034.075.075.075h10.5a.075.075 0 00.075-.075v-8.75a.075.075 0 00-.075-.075H6.75zm12.175 1.942V9.375c0-.925-.75-1.675-1.675-1.675H6.75c-.925 0-1.675.75-1.675 1.675v8.75c0 .925.75 1.675 1.675 1.675h10.5c.925 0 1.675-.75 1.675-1.675V16.26l2.226 1.636 1.274.936V8.669l-1.274.937-2.226 1.636zm0 1.985v1.046l1.9 1.396v-3.838l-1.9 1.396z" fill="#000"/></svg>