<svg width="24" height="24" viewBox="0 0 24 24" fill="none" xmlns="http://www.w3.org/2000/svg"><path fill-rule="evenodd" clip-rule="evenodd" d="M4.768 4.884a.273.273 0 00-.008.073v14.162h5.96V4.882H4.8a.211.211 0 00-.032.002zM18.24 19.119h-5.92v-6.275h5.96v6.2a.27.27 0 01-.008.073.213.213 0 01-.032.002zm.04-7.875h-5.96V4.882h5.92a.21.21 0 01.032.002.27.27 0 01.008.073v6.287zM3.614 3.768A1.62 1.62 0 014.8 3.282h13.44c.444 0 .871.158 1.186.486.312.325.454.754.454 1.189v14.087c0 .435-.142.863-.454 1.189a1.62 1.62 0 01-1.186.486H3.16V4.957c0-.435.142-.864.454-1.189z" fill="#000" fill-opacity=".9"/></svg>